<svg xmlns="http://www.w3.org/2000/svg" viewBox="0 0 392 346.79" id="" class="svg replaced-svg"><defs><style>.cls-1{fill:#555;}</style></defs><title>Icon3</title><g id="Layer_2" data-name="Layer 2"><g id="icons"><path class="cls-1" d="M336.41,280.7a14.2,14.2,0,0,1-10.23-4.36L270.3,218.52H179.48a39.09,39.09,0,0,1-39-39V39a39.09,39.09,0,0,1,39-39H353a39.09,39.09,0,0,1,39,39V179.48a39.09,39.09,0,0,1-39,39H350.7v47.91a14.29,14.29,0,0,1-14.28,14.27ZM179.48,12a27.07,27.07,0,0,0-27,27V179.48a27.07,27.07,0,0,0,27,27h93.37a6,6,0,0,1,4.31,1.83L334.81,268a2.26,2.26,0,0,0,3.89-1.57V212.52a6,6,0,0,1,6-6H353a27.07,27.07,0,0,0,27-27V39a27.07,27.07,0,0,0-27-27Z"></path><path class="cls-1" d="M55.59,346.79A14.29,14.29,0,0,1,41.3,332.52V284.61H39a39.09,39.09,0,0,1-39-39V113.39a39.09,39.09,0,0,1,39-39h90.87v12H39a27.07,27.07,0,0,0-27,27V245.57a27.07,27.07,0,0,0,27,27H47.3a6,6,0,0,1,6,6v53.91a2.26,2.26,0,0,0,3.89,1.57l57.65-59.65a6,6,0,0,1,4.31-1.83H196a27.07,27.07,0,0,0,27-27V229h12v16.52a39.09,39.09,0,0,1-39,39H121.69L65.82,342.43A14.2,14.2,0,0,1,55.59,346.79Z"></path><rect class="cls-1" x="196" y="57.83" width="140.43" height="12"></rect><rect class="cls-1" x="196" y="99.13" width="140.43" height="12"></rect><rect class="cls-1" x="196" y="140.44" width="66.09" height="12"></rect></g></g></svg>