<svg xmlns="http://www.w3.org/2000/svg" viewBox="0 0 380 300" id="" class="svg replaced-svg"><defs><style>.cls-1{fill:#555}</style></defs><g id="Layer_2" data-name="Layer 2"><g id="Layer_1-2" data-name="Layer 1"><path class="cls-1" d="M158 252a6 6 0 0 1-6-6v-40a6 6 0 0 1 12 0v40a6 6 0 0 1-6 6Z"></path><path class="cls-1" d="M174 212c-16.81 0-39.56-9.41-60.85-25.18-21.61-16-36.93-35.21-41-51.37a6 6 0 1 1 11.64-2.91C90.91 160.91 143.17 200 174 200a6 6 0 0 1 0 12Z"></path><path class="cls-1" d="M126 300h-8a6 6 0 0 1-6-6v-16a6 6 0 0 1 12 0v10h2c29.47 0 50-22.13 50-42a6 6 0 0 1 3.32-5.37l12.68-6.34V188h-10a6 6 0 0 1-6-6v-24c0-29.71-34.15-66-74-66s-74 36.29-74 66v24a6 6 0 0 1-6 6H12v46.29l12.68 6.34a6 6 0 1 1-5.37 10.73l-16-8A6 6 0 0 1 0 238v-56a6 6 0 0 1 6-6h10v-18c0-18.35 9.5-37.74 26.07-53.19C59 89 80.82 80 102 80s43 9 59.93 24.81C178.5 120.26 188 139.65 188 158v18h10a6 6 0 0 1 6 6v56a6 6 0 0 1-3.32 5.37l-12.85 6.43c-1.1 12.25-7.45 24.34-17.82 33.67A65.54 65.54 0 0 1 126 300Z"></path><path class="cls-1" d="M246.05 246.73a14.14 14.14 0 0 1-5-.91 13.89 13.89 0 0 1-9.05-13.11V196h-10a6 6 0 0 1 0-12h16a6 6 0 0 1 6 6v42.71a2 2 0 0 0 3.51 1.32l42-48a6 6 0 0 1 4.52-2h64a10 10 0 0 0 10-10V22a10 10 0 0 0-10-10H150a10 10 0 0 0-10 10v40a6 6 0 0 1-12 0V22a22 22 0 0 1 22-22h208a22 22 0 0 1 22 22v152a22 22 0 0 1-22 22h-61.28l-40.19 45.93a13.89 13.89 0 0 1-10.48 4.8ZM86 292a6 6 0 0 1-2.47-.53C59.12 280.45 40 253.45 40 230v-32c0-20.11 28-39.74 44.65-49.66a6 6 0 1 1 6.13 10.31C67.22 172.67 52 188.11 52 198v32c0 18.78 16.36 41.45 36.47 50.53A6 6 0 0 1 86 292Z"></path><path class="cls-1" d="M286 96h16v12h-16zM246 96h16v12h-16zM206 96h16v12h-16z"></path></g></g></svg>