<svg xmlns="http://www.w3.org/2000/svg" viewBox="0 0 55.13 50.2"><defs><style>.cls-1{fill:#444}</style></defs><g id="Layer_2" data-name="Layer 2"><g id="Layer_1-2" data-name="Layer 1"><path class="cls-1" d="M33 49.2a2 2 0 0 0 .28-1v-2a2 2 0 0 0-2-2h-8a2 2 0 0 0-2 2v2a2 2 0 0 0 2 2h8a2 2 0 0 0 1.72-1"/><path class="cls-1" d="M26.32 50.19v-3c10.2 0 20.5-5.41 20.5-17.5v-7.2a19.49 19.49 0 1 0-39 0v6.13h-3v-6.13a22.49 22.49 0 1 1 45 0v7.2c0 12.26-9.44 20.5-23.5 20.5Z"/><path class="cls-1" d="M38.08 21.26c0 5.95-7.79 15.5-10.75 15.5-3.27 0-10.8-9.55-10.8-15.5a10.77 10.77 0 0 1 21.54 0M7.8 36.22a7.8 7.8 0 1 1 0-15.6ZM47.33 36.22a7.8 7.8 0 0 0 0-15.6Z"/></g></g></svg>