<svg xmlns="http://www.w3.org/2000/svg" xmlns:xlink="http://www.w3.org/1999/xlink" viewBox="0 0 510.25 226.76">
    <defs>
        <style>
            .cls-1 {
                fill: url(#linear-gradient);
            }

            .cls-2 {
                fill: url(#linear-gradient-2);
            }

            .cls-3 {
                fill: url(#linear-gradient-7);
            }

            .cls-4 {
                fill: url(#linear-gradient-16);
            }

            .cls-5 {
                fill: url(#linear-gradient-18);
            }

            .cls-6 {
                fill: url(#linear-gradient-19);
            }

            .cls-7 {
                fill: url(#linear-gradient-21);
            }

            .cls-8 {
                fill: url(#linear-gradient-22);
            }

            .cls-9 {
                fill: url(#linear-gradient-24);
            }

            .cls-10 {
                fill: url(#linear-gradient-25);
            }

            .cls-11 {
                fill: url(#linear-gradient-26);
            }

            .cls-12 {
                fill: url(#linear-gradient-27);
            }

            .cls-13 {
                fill: url(#linear-gradient-28);
            }

            .cls-14 {
                fill: url(#linear-gradient-29);
            }
        </style>
        <linearGradient id="linear-gradient" x1="-4.08" y1="56.99" x2="526.03" y2="56.99" gradientTransform="matrix(1, 0, 0, -1, 0, 227.92)" gradientUnits="userSpaceOnUse">
            <stop offset="0" stop-color="#2a4e9d" />
            <stop offset="1" stop-color="#139cd8" />
        </linearGradient>
        <linearGradient id="linear-gradient-2" x1="-4.08" y1="14.41" x2="526.03" y2="14.41" xlink:href="#linear-gradient" />
        <linearGradient id="linear-gradient-7" x1="-4.08" y1="14.42" x2="526.03" y2="14.42" xlink:href="#linear-gradient" />
        <linearGradient id="linear-gradient-16" x1="-4.08" y1="14.39" x2="526.03" y2="14.39" xlink:href="#linear-gradient" />
        <linearGradient id="linear-gradient-18" x1="-4.08" y1="136.47" x2="526.03" y2="136.47" xlink:href="#linear-gradient" />
        <linearGradient id="linear-gradient-19" x1="-4.08" y1="135.41" x2="526.03" y2="135.41" xlink:href="#linear-gradient" />
        <linearGradient id="linear-gradient-21" x1="-4.08" y1="136.53" x2="526.03" y2="136.53" xlink:href="#linear-gradient" />
        <linearGradient id="linear-gradient-22" x1="-4.08" y1="136.27" x2="526.03" y2="136.27" xlink:href="#linear-gradient" />
        <linearGradient id="linear-gradient-24" x1="-4.08" y1="217.38" x2="526.03" y2="217.38" xlink:href="#linear-gradient" />
        <linearGradient id="linear-gradient-25" x1="-4.08" y1="222.89" x2="526.03" y2="222.89" xlink:href="#linear-gradient" />
        <linearGradient id="linear-gradient-26" x1="-4.08" y1="211.16" x2="526.03" y2="211.16" xlink:href="#linear-gradient" />
        <linearGradient id="linear-gradient-27" x1="-4.08" y1="213.2" x2="526.03" y2="213.2" xlink:href="#linear-gradient" />
        <linearGradient id="linear-gradient-28" x1="-4.08" y1="208.59" x2="526.03" y2="208.59" xlink:href="#linear-gradient" />
        <linearGradient id="linear-gradient-29" x1="-4.08" y1="217.37" x2="526.03" y2="217.37" xlink:href="#linear-gradient" />
    </defs>
    <g id="Layer_2" data-name="Layer 2">
        <g id="Layer_1-2" data-name="Layer 1">
            <rect class="cls-1" y="169.43" width="510.24" height="3" />
            <polygon class="cls-2" points="22.86 200.64 21.9 200.64 12.37 223.35 2.86 200.64 1.93 200.64 0.67 200.64 0 200.64 0 226.38 2.16 226.38 2.16 215.12 1.98 203.72 11.54 226.38 13.21 226.38 22.81 203.65 22.61 215.12 22.61 226.38 24.79 226.38 24.79 200.64 24.08 200.64 22.86 200.64" />
            <path class="cls-2" d="M47.64,200.64H45.57l-9.72,25.74h2.26l2.66-7.21H52.46l2.66,7.21h2.26Zm-6.19,16.67,5.16-14,5.17,14H41.45Z" />
            <polygon class="cls-2" points="86.54 200.64 83.78 200.64 74.11 210.84 70.61 214.48 70.61 200.64 68.44 200.64 68.44 226.38 70.61 226.38 70.61 217.15 74.24 213.59 84.72 226.38 87.37 226.38 75.75 212.08 86.54 200.64" />
            <polygon class="cls-2" points="100.72 214.04 112.74 214.04 112.74 212.18 100.72 212.18 100.72 202.49 114.45 202.49 114.45 200.64 100.72 200.64 100.06 200.64 98.54 200.64 98.54 226.38 100.06 226.38 100.72 226.38 114.54 226.38 114.54 224.54 100.72 224.54 100.72 214.04" />
            <path class="cls-2" d="M151.51,200.64h-2.07l-9.72,25.74H142l2.66-7.21h11.69l2.66,7.21h2.26l-9.74-25.74Zm-6.19,16.67,5.16-14,5.17,14H145.32Z" />
            <path class="cls-3" d="M204.58,216.14a6.18,6.18,0,0,0-4.3-3.19,6.79,6.79,0,0,0,1.39-.64,5.56,5.56,0,0,0,2-2.09,6.69,6.69,0,0,0-1.54-8,10.39,10.39,0,0,0-6.16-1.61h-7.6v25.74h8.7a9.11,9.11,0,0,0,6-1.86,6.57,6.57,0,0,0,2.27-5.38,6.32,6.32,0,0,0-.72-3Zm-14-13.65H196a7.63,7.63,0,0,1,4.65,1.18,5,5,0,0,1,0,7.25,7,7,0,0,1-4.43,1.23h-5.64v-9.67Zm11,20.61a6.42,6.42,0,0,1-4.45,1.44h-6.52V214h6.68a7.13,7.13,0,0,1,3.31.68,4.48,4.48,0,0,1,1.94,1.86,5.48,5.48,0,0,1,.64,2.64,5,5,0,0,1-1.6,3.93Z" />
            <polygon class="cls-2" points="219.98 214.04 232 214.04 232 212.18 219.98 212.18 219.98 202.49 233.72 202.49 233.72 200.64 219.98 200.64 219.32 200.64 217.8 200.64 217.8 226.38 219.32 226.38 219.98 226.38 233.8 226.38 233.8 224.54 219.98 224.54 219.98 214.04" />
            <polygon class="cls-2" points="252.47 200.64 243.66 200.64 243.66 202.49 252.47 202.49 252.47 226.38 254.62 226.38 254.62 202.49 263.45 202.49 263.45 200.64 254.62 200.64 252.47 200.64" />
            <polygon class="cls-2" points="281.61 200.64 272.81 200.64 272.81 202.49 281.61 202.49 281.61 226.38 283.77 226.38 283.77 202.49 292.59 202.49 292.59 200.64 283.77 200.64 281.61 200.64" />
            <polygon class="cls-2" points="306.18 214.04 318.2 214.04 318.2 212.18 306.18 212.18 306.18 202.49 319.92 202.49 319.92 200.64 306.18 200.64 305.52 200.64 304 200.64 304 226.38 305.52 226.38 306.18 226.38 320 226.38 320 224.54 306.18 224.54 306.18 214.04" />
            <path class="cls-3" d="M343.55,215.19A7.62,7.62,0,0,0,346,214a7,7,0,0,0,2.11-2.48,7.11,7.11,0,0,0,.76-3.31,7.64,7.64,0,0,0-1.07-4.15,6.57,6.57,0,0,0-3-2.55,11.35,11.35,0,0,0-4.63-.87h-8.36v25.74H334V215.64h7.5l6.2,10.73H350v-.23l-6.45-11Zm-2.92-1.38H334V202.49h6.19A7,7,0,0,1,345,204a5.35,5.35,0,0,1,1.69,4.17A5.83,5.83,0,0,1,346,211a5.21,5.21,0,0,1-2,2.07,6.55,6.55,0,0,1-3.38.79Z" />
            <path class="cls-2" d="M391,214.07a22.55,22.55,0,0,0-4.65-1.71,20.83,20.83,0,0,1-4.09-1.5,5.6,5.6,0,0,1-2.16-1.78,3.92,3.92,0,0,1-.65-2.2,4.18,4.18,0,0,1,.72-2.37,5,5,0,0,1,2.17-1.72,8.71,8.71,0,0,1,3.56-.65,7.74,7.74,0,0,1,3.59.76,5.46,5.46,0,0,1,2.27,2.08,5.7,5.7,0,0,1,.79,3h2.17a7.24,7.24,0,0,0-1.08-3.9,7.7,7.7,0,0,0-3.06-2.77,10.09,10.09,0,0,0-4.68-1,11.4,11.4,0,0,0-4.48.83,7.26,7.26,0,0,0-3.06,2.32,5.7,5.7,0,0,0-1.11,3.49,5.76,5.76,0,0,0,.58,2.66,5.9,5.9,0,0,0,1.69,2,12.1,12.1,0,0,0,2.65,1.5,28.42,28.42,0,0,0,3.49,1.18,23.87,23.87,0,0,1,4.21,1.55,5.54,5.54,0,0,1,2.18,1.79,4.42,4.42,0,0,1,.65,2.44,4.12,4.12,0,0,1-.83,2.54,5.49,5.49,0,0,1-2.32,1.7,9.16,9.16,0,0,1-3.52.61,11.19,11.19,0,0,1-2.63-.31,7.81,7.81,0,0,1-2.39-1,5.2,5.2,0,0,1-1.74-1.81,5.43,5.43,0,0,1-.65-2.75h-2.17a6.73,6.73,0,0,0,3.09,5.9,10.43,10.43,0,0,0,3.1,1.37,13.69,13.69,0,0,0,3.41.44,12.24,12.24,0,0,0,4.56-.8,7.31,7.31,0,0,0,3.15-2.32,5.76,5.76,0,0,0,1.15-3.6,6,6,0,0,0-1-3.52,7.87,7.87,0,0,0-2.91-2.42Z" />
            <path class="cls-2" d="M423.28,204.31a6.78,6.78,0,0,0-2.92-2.7,10.49,10.49,0,0,0-4.76-1h-8.77v25.74H409V215.9h6.59a11.23,11.23,0,0,0,4.76-.9,6.37,6.37,0,0,0,2.92-2.61,8.11,8.11,0,0,0,1-4.08,7.73,7.73,0,0,0-1-4Zm-1.85,6.94a4.74,4.74,0,0,1-2.09,2,8,8,0,0,1-3.73.75H409V202.5h6.59a7.53,7.53,0,0,1,3.73.81,5.06,5.06,0,0,1,2.09,2.14,6.7,6.7,0,0,1,0,5.8Z" />
            <path class="cls-2" d="M442.68,200.64h-2.07l-9.72,25.74h2.26l2.66-7.21H447.5l2.66,7.21h2.26l-9.74-25.74Zm-6.19,16.67,5.16-14,5.17,14H436.49Z" />
            <path class="cls-4" d="M465.65,206.74a7.74,7.74,0,0,1,2.63-3.39,7.91,7.91,0,0,1,9.13.51,8,8,0,0,1,2.1,4.83h2.17a10.56,10.56,0,0,0-1.42-4.53,7.6,7.6,0,0,0-3.15-2.87,10.57,10.57,0,0,0-4.75-1,9.3,9.3,0,0,0-5.22,1.45,9.45,9.45,0,0,0-3.41,4.07,14.5,14.5,0,0,0-1.2,6.1v3.24a14.43,14.43,0,0,0,1.2,6.08,9.59,9.59,0,0,0,3.38,4.07,8.94,8.94,0,0,0,5.09,1.45,10.73,10.73,0,0,0,4.87-1,7.67,7.67,0,0,0,3.18-2.89,10.43,10.43,0,0,0,1.42-4.48H479.5a9.83,9.83,0,0,1-1.13,3.62,5.4,5.4,0,0,1-2.37,2.19,8.7,8.7,0,0,1-3.8.73,6.71,6.71,0,0,1-4.06-1.26,7.87,7.87,0,0,1-2.55-3.47,13.41,13.41,0,0,1-.88-5V211.9a13,13,0,0,1,.93-5.12Z" />
            <polygon class="cls-2" points="496.41 224.54 496.41 214.04 508.43 214.04 508.43 212.18 496.41 212.18 496.41 202.49 510.15 202.49 510.15 200.64 496.41 200.64 495.76 200.64 494.24 200.64 494.24 226.38 495.76 226.38 496.41 226.38 510.24 226.38 510.24 224.54 496.41 224.54" />
            <path class="cls-5" d="M227.82,139.43,198.74,93.84l4.21-.17a60.42,60.42,0,0,0,9.92-1.07c12.8-2.59,21.06-12.83,21.06-26.1,0-3.22-1.1-6.65-3.37-10.52-6.38-11.11-21.53-12.53-34-12.53H176.23v5.71H199c9.39,0,16.4,1.71,20.82,5.08,5,3.73,7.81,8.73,7.84,14.06s-2.75,10.47-7.8,14.32c-4.31,3.39-11,5.1-20,5.1H187.11l33.33,51.72h7.38Z" />
            <path class="cls-6" d="M148.48,105V43.44h-6.14v59.27c0,27.87-13.8,33.72-25.37,33.72-25.23,0-25.23-23.86-25.23-31.7V43.44H85.46V105c0,25.28,9.94,36.56,32.22,36.56C138.69,141.57,148.48,130,148.48,105Z" />
            <path class="cls-5" d="M6.28,139.43V93.72H23.61A69.52,69.52,0,0,0,38.07,92.6C50.87,90,59.14,79.77,59.14,66.5c0-3.21-1.1-6.65-3.38-10.52-6.38-11.1-21.53-12.53-34-12.53H0v5.71H24.18c9.39,0,16.4,1.71,20.82,5.08C50,58,52.81,63,52.84,68.3S50.09,78.77,45,82.62c-4.32,3.39-11,5.1-20,5.1H0v51.72H6.28Z" />
            <polygon class="cls-7" points="268.13 139.43 268.23 43.35 261.95 43.35 261.85 139.43 268.13 139.43" />
            <path class="cls-8" d="M510.24,139.71V80.59c0-11.56-1.82-20.4-5.41-26.3l-.08-.13c-4.42-7.11-12.08-10.56-23.42-10.56-10.61,0-18.73,3.79-26.32,12.28L453.12,58l-1.8-2.19a32.08,32.08,0,0,0-25.88-12.21c-5.83,0-10.33.67-13.45,2-16.11,6.37-19.34,18.15-19.34,35.1v59h6V82a95.72,95.72,0,0,1,.74-14.17l0-.11c2.45-11.81,11.86-18.87,25.19-18.87,16.36,0,24.66,9.26,24.66,27.53v63.3h5.56V82c0-6.42.13-11.3.75-14.26,2.3-11.83,11.56-18.88,24.76-18.88,21.35,0,24.23,15,24.23,29.69v61.14h5.7Z" />
            <path class="cls-6" d="M364.87,105V43.44h-6.13v59.27c0,27.87-13.79,33.72-25.36,33.72-25.24,0-25.24-23.86-25.24-31.7V43.44h-6.28V105c0,25.28,9.94,36.56,32.22,36.56,21,0,30.79-11.62,30.79-36.56Z" />
            <path class="cls-9" d="M64.63,18.42a7.51,7.51,0,0,0-1.74-.18,11.66,11.66,0,0,0-2.58.29,10.81,10.81,0,0,1-2.51.29c-.66,0-1-.3-1-.92a4.46,4.46,0,0,1,.4-1.7,17.48,17.48,0,0,1,.92-1.9c.34-.62.61-1.13.81-1.52.56-1,1.18-2.14,1.87-3.28s1.29-2.23,1.83-3.28a19.45,19.45,0,0,0,1-2.11A4.87,4.87,0,0,0,64,2.55a3,3,0,0,0-.33-1.28,1,1,0,0,0-.92-.7,1.13,1.13,0,0,0-.33.07,7.31,7.31,0,0,1-.66,2.66,35.74,35.74,0,0,1-1.61,3.33c-.64,1.16-1.26,2.23-1.87,3.21a43.56,43.56,0,0,0-2.4,4.36,9.45,9.45,0,0,0-1,4,2.16,2.16,0,0,0,.27,1,2.38,2.38,0,0,0,.92.92,3.24,3.24,0,0,0,1.7.38,8.55,8.55,0,0,0,1.36-.16l2-.37c.72-.13,1.43-.26,2.12-.37a11.51,11.51,0,0,1,1.74-.16h.27a.61.61,0,0,1,.24,0A1,1,0,0,0,64.63,18.42Z" />
            <path class="cls-10" d="M111.21,6.15a1.14,1.14,0,0,0,.82-.33,1.64,1.64,0,0,0,.46-.81.91.91,0,0,0-.95-1.1,1.21,1.21,0,0,0-.86.38,1.26,1.26,0,0,0-.38.93.92.92,0,0,0,.26.64.87.87,0,0,0,.66.27Z" />
            <path class="cls-11" d="M138.2,14.87A.22.22,0,0,0,138,15a9.48,9.48,0,0,1-.62.77c-.22.24-.46.5-.73.77a10.54,10.54,0,0,1-1.36,1.25c-.61.49-1.23,1-1.87,1.43l-.4.29a23.71,23.71,0,0,0,.46-3c.09-1,.13-1.89.13-2.6,0-.34,0-.63,0-.88a4.76,4.76,0,0,0-.05-.55l-.28-.06-.27,0a1.32,1.32,0,0,0-.77.26,2.06,2.06,0,0,0-.62,1.06,8,8,0,0,1-.77,1.69,20.94,20.94,0,0,1-1.36,2.07,9.69,9.69,0,0,1-1.59,1.74,2.49,2.49,0,0,1-1.52.7c-.51,0-.77-.33-.77-1a6,6,0,0,1,.48-2.05,16.15,16.15,0,0,1,1.3-2.6,20.31,20.31,0,0,1,1.85-2.56,10.46,10.46,0,0,1,2.14-2A3.9,3.9,0,0,1,133.56,9c.71,0,1.26.45,1.58,1.36.1.29.27.44.51.44s.44-.18.44-.55a1.21,1.21,0,0,0-.55-.92,4.73,4.73,0,0,0-2.89-1,5.85,5.85,0,0,0-3,.82,9.08,9.08,0,0,0-2.51,2.11,14.49,14.49,0,0,0-1.08,1.41,17.73,17.73,0,0,0-1.23,2.09l-.08.18a.28.28,0,0,0-.14.1c-.22.24-.44.5-.66.77s-.46.55-.73.84-.64.71-1.1,1.19A10.55,10.55,0,0,1,120.72,19a2.44,2.44,0,0,1-1.45.55c-.22,0-.33-.13-.33-.4a3,3,0,0,1,.31-1.12q.31-.72.75-1.5c.29-.52.57-1,.82-1.41s.43-.7.53-.84c.51-.78,1-1.58,1.54-2.4a4.23,4.23,0,0,0,.77-2.14,1.23,1.23,0,0,0-.44-1,1.59,1.59,0,0,0-1-.37,3.25,3.25,0,0,0-1.74.64,12.91,12.91,0,0,0-2,1.65c-.67.67-1.31,1.37-1.92,2.09s-1.15,1.39-1.61,2-.81,1.05-1,1.32c.41-1,.87-1.92,1.36-2.84s.85-1.59,1.1-2c.34-.64.67-1.2,1-1.7s.49-.84.57-1a3,3,0,0,0-2,.16,2.18,2.18,0,0,0-1,1c-.86,1.76-1.61,3.5-2.28,5.23,0,0,0,0-.06,0a.3.3,0,0,0-.18.11,7.92,7.92,0,0,1-.64.77l-.71.77c-.22.27-.57.64-1,1.12a13.41,13.41,0,0,1-1.48,1.28,2.4,2.4,0,0,1-1.36.57.8.8,0,0,1-.75-.33,1.71,1.71,0,0,1-.2-.88,6.62,6.62,0,0,1,.44-2.23,18.7,18.7,0,0,1,1.1-2.45c.44-.83.9-1.62,1.37-2.36s.9-1.41,1.26-2a.74.74,0,0,0,.18-.48c0-.2-.15-.29-.44-.29a3.3,3.3,0,0,0-1.28.35,1.92,1.92,0,0,0-1,.71l-.93,1.52a30,30,0,0,0-1.47,2.73c-.18.38-.34.78-.49,1.17l0,0c-.2.27-.4.53-.62.79s-.46.52-.73.79A17.13,17.13,0,0,1,102,18.15a7,7,0,0,1-1.63,1.15,1.83,1.83,0,0,1-.81.26c-.37,0-.55-.26-.55-.77a6.32,6.32,0,0,1,.46-2c.31-.87.7-1.82,1.17-2.86s1-2.07,1.48-3.1a.51.51,0,0,0,.35-.17.57.57,0,0,0,.17-.42,1,1,0,0,0-.07-.29c.59-1.17,1.11-2.18,1.58-3s.92-1.64,1.36-2.36.9-1.43,1.39-2.14S108,.88,108.63,0a4.88,4.88,0,0,0-2.73,1.08A9.24,9.24,0,0,0,104,3.55L101.78,7.4c-.1.2-.2.4-.29.6l-.33.71a4.31,4.31,0,0,0-1.87-.44,5.71,5.71,0,0,0-2.91.9A13.4,13.4,0,0,0,93.5,11.5a18.7,18.7,0,0,0-2.34,3c-.08.14-.17.3-.26.48a.2.2,0,0,0-.15-.07.3.3,0,0,0-.18.11,9.48,9.48,0,0,1-.62.77c-.22.24-.46.5-.73.77a20.36,20.36,0,0,1-1.52,1.58,7.11,7.11,0,0,1-1.63,1.17,1.72,1.72,0,0,1-.77.29c-.24,0-.37-.16-.37-.48a2.36,2.36,0,0,1,.15-.73c.1-.29.22-.61.37-.95.27-.61.58-1.25.93-1.9s.66-1.23.93-1.7.4-.73.4-.75c.12-.24.08-.41-.11-.51a1.61,1.61,0,0,0-.73-.15,2.45,2.45,0,0,0-.71.11,1,1,0,0,0-.49.29,4.67,4.67,0,0,0-.31.44c-.11.17-.23.35-.35.55-.32.37-.75.87-1.28,1.52s-1.12,1.3-1.74,2A18.3,18.3,0,0,1,80.18,19a3.7,3.7,0,0,1-1.83.92c-.37,0-.55-.22-.55-.66a3.51,3.51,0,0,1,.09-.71,4.84,4.84,0,0,1,.35-1,15.62,15.62,0,0,1,1.54-2.77A22.25,22.25,0,0,1,82.05,12a17.47,17.47,0,0,1,2.31-2,3.74,3.74,0,0,1,2.09-.84A1.63,1.63,0,0,1,88,10.36c.1.29.26.44.48.44s.48-.18.48-.55a.87.87,0,0,0-.13-.42,1.71,1.71,0,0,0-.46-.49A4.22,4.22,0,0,0,87,8.55a4.34,4.34,0,0,0-1.43-.24,5.71,5.71,0,0,0-2.91.9,13.4,13.4,0,0,0-2.88,2.33,18.7,18.7,0,0,0-2.34,3c-.12.2-.24.44-.37.7l-.47.6c-.22.26-.45.52-.7.79l-.86.86c-.26.26-.52.51-.79.75s-.67.51-1.21.88a11.55,11.55,0,0,1-1.72,1,4.13,4.13,0,0,1-1.72.42,1.23,1.23,0,0,1-.86-.31,1.34,1.34,0,0,1-.35-1,2,2,0,0,1,0-.35c0-.11,0-.23,0-.35.05-.27.11-.56.18-.86s.16-.62.26-.93a14,14,0,0,0,4-1.56,11.89,11.89,0,0,0,3.24-2.91,4,4,0,0,0,.59-1,2.45,2.45,0,0,0,.18-.84,1.78,1.78,0,0,0-.71-1.47,2.69,2.69,0,0,0-1.7-.55,4.46,4.46,0,0,0-2.33.79,12.43,12.43,0,0,0-2.45,2.07,13.85,13.85,0,0,0-2,2.82,11.25,11.25,0,0,0-.82,1.9,7.07,7.07,0,0,0-.42,2.31,2.77,2.77,0,0,0,3,3,6,6,0,0,0,3.13-.84,10.34,10.34,0,0,0,2.22-1.69c.46-.49.92-1,1.36-1.52l.14-.17a5.73,5.73,0,0,0-.33,1.8,2.17,2.17,0,0,0,.48,1.43,2.07,2.07,0,0,0,1.68.59,3.7,3.7,0,0,0,2.23-.77,10.58,10.58,0,0,0,2-1.92,23.37,23.37,0,0,0,1.67-2.33c-.1.29-.2.57-.31.84a4.15,4.15,0,0,0-.24.81,5.77,5.77,0,0,0-.26,1.58,1.88,1.88,0,0,0,.4,1.34,1.32,1.32,0,0,0,1,.42,4.47,4.47,0,0,0,2.89-1.47c.29-.27.58-.55.86-.86s.56-.62.82-.93.57-.64.84-1l.34-.41-.14.32a6.05,6.05,0,0,0-.53,2.34,2.19,2.19,0,0,0,.48,1.43,2.07,2.07,0,0,0,1.68.59,3.86,3.86,0,0,0,2.45-.95,13.53,13.53,0,0,0,2.2-2.31c.68-.9,1.29-1.77,1.83-2.6A9.88,9.88,0,0,0,98,16c-.11.34-.2.65-.27.92a5.25,5.25,0,0,0-.24.95A6.6,6.6,0,0,0,97.36,19a2.73,2.73,0,0,0,.31,1.34,1.28,1.28,0,0,0,1.23.57,3,3,0,0,0,1.41-.44,12,12,0,0,0,1.56-1.06,3.26,3.26,0,0,0,.33-.31l.29-.31c.49-.49,1-1,1.39-1.52.22-.26.43-.53.64-.8-.06.25-.12.49-.17.74a7.76,7.76,0,0,0-.11,1.21,2.36,2.36,0,0,0,.59,1.81,2,2,0,0,0,1.39.53,3.54,3.54,0,0,0,1.83-.49A7.93,7.93,0,0,0,109.63,19c.49-.49.93-1,1.32-1.43s.57-.64.84-1c.09-.12.19-.23.28-.34a49,49,0,0,1-2.22,4.68,1.26,1.26,0,0,1,.48-.17l.59,0a6.36,6.36,0,0,0,.82-.09.71.71,0,0,0,.49-.38c.27-.46.51-.91.73-1.34a10.37,10.37,0,0,1,.77-1.26c.51-.71,1.06-1.44,1.63-2.2a25.21,25.21,0,0,1,1.78-2.12,11.24,11.24,0,0,1,.86-.95c.43-.44.88-.9,1.37-1.37s.95-.89,1.37-1.25.71-.53.86-.53.26.07.26.22a3.17,3.17,0,0,1-.48,1.45c-.32.57-.71,1.2-1.19,1.89s-1,1.39-1.41,2.11A16.64,16.64,0,0,0,117.61,17a4.51,4.51,0,0,0-.48,1.9,2.71,2.71,0,0,0,.31,1.36,1.29,1.29,0,0,0,1.23.55,4.51,4.51,0,0,0,2.93-1.47c.29-.27.58-.55.86-.86s.56-.62.82-.93.57-.64.84-1l.07-.09c-.06.19-.13.39-.18.58a4,4,0,0,0-.11.62c0,.22,0,.44,0,.66a3.92,3.92,0,0,0,.44,1.85,1.63,1.63,0,0,0,1.58.82,3,3,0,0,0,1.65-.53,7.91,7.91,0,0,0,1.54-1.34A13.9,13.9,0,0,0,130.7,17c.48-.78.84-1.42,1.08-1.9a11.27,11.27,0,0,1-.18,2.62,20.05,20.05,0,0,1-.81,3.1,13.77,13.77,0,0,1-1.43.81L127,22.89c-.92.48-1.86,1-2.84,1.59a22.61,22.61,0,0,0-2.75,1.94,11.43,11.43,0,0,0-2.11,2.27,5.22,5.22,0,0,0-.93,2.56,2.53,2.53,0,0,0,.46,1.54,2.31,2.31,0,0,0,2,.73,7.27,7.27,0,0,0,3.77-1.1,14.42,14.42,0,0,0,3.44-3,22.42,22.42,0,0,0,2.84-4.14,23.79,23.79,0,0,0,1.92-4.71,7.32,7.32,0,0,0,1-.62,20.85,20.85,0,0,0,1.81-1.41,14.75,14.75,0,0,0,1.08-1c.56-.66,1.1-1.31,1.61-1.94a.52.52,0,0,0,.18-.37c0-.2-.07-.29-.22-.29Zm-67-2.38a10.07,10.07,0,0,1,3.15-2.67,2.24,2.24,0,0,1,1-.29c.39,0,.59.17.59.51a1.41,1.41,0,0,1-.26.73,10.89,10.89,0,0,1-2,2.33A15.92,15.92,0,0,1,71.3,15a17.52,17.52,0,0,1-2.22,1.17A16.73,16.73,0,0,1,71.24,12.49Zm27.51,1.25c-.29.37-.71.87-1.26,1.52s-1.14,1.31-1.78,2a18.36,18.36,0,0,1-1.83,1.7,3.7,3.7,0,0,1-1.83.92c-.37,0-.55-.22-.55-.66a3.51,3.51,0,0,1,.09-.71,4.84,4.84,0,0,1,.35-1,15.62,15.62,0,0,1,1.54-2.77,22.25,22.25,0,0,1,2.27-2.84,14.52,14.52,0,0,1,2.29-2,3.85,3.85,0,0,1,2.11-.82,1.54,1.54,0,0,1,.7.15c-.39.76-.76,1.52-1.12,2.29s-.68,1.51-1,2.22ZM128.9,25.3a24.08,24.08,0,0,1-2.45,3.55,15.58,15.58,0,0,1-2.89,2.73,5.07,5.07,0,0,1-2.93,1.06,1.34,1.34,0,0,1-1.17-.46,1.37,1.37,0,0,1-.29-.93,4.69,4.69,0,0,1,1.06-2.66,12.36,12.36,0,0,1,2.44-2.33,27.21,27.21,0,0,1,3-1.94c1-.59,2-1.09,2.88-1.52s1.51-.78,1.92-1a18,18,0,0,1-1.58,3.53Z" />
            <path class="cls-12" d="M163.44,9.3a2.59,2.59,0,0,0-2.2-.92,5,5,0,0,0-2.6.82,10.6,10.6,0,0,0-2.51,2.18,12.26,12.26,0,0,0-1.89,3,10.48,10.48,0,0,0-.43,1.17c-.06.07-.12.15-.19.22l-.7.77a22.7,22.7,0,0,1-2.22,2.16,7.43,7.43,0,0,1-2.58,1.47,4.06,4.06,0,0,1-1.39.29,1.13,1.13,0,0,1-1-.42,1.75,1.75,0,0,1-.29-1,6,6,0,0,1,.29-1.74,13.68,13.68,0,0,1,.66-1.74c.24-.54.41-.9.51-1.1A12.13,12.13,0,0,1,148.67,12a13.76,13.76,0,0,1,2.07-1.87,2.22,2.22,0,0,1,1.56-.6,1.76,1.76,0,0,1-.15.73c-.12.37-.26.73-.4,1.1s-.24.62-.29.77a2.28,2.28,0,0,0-.18.7c0,.17.06.26.18.26a1.15,1.15,0,0,0,.55-.29,5.15,5.15,0,0,0,.88-1,2,2,0,0,0,.4-1.25A2.43,2.43,0,0,0,152.7,9a2,2,0,0,0-1.65-.71,4.26,4.26,0,0,0-2.29.79,11.12,11.12,0,0,0-2.33,2.07A13.55,13.55,0,0,0,144.56,14a10.42,10.42,0,0,0-.71,1.89,8.23,8.23,0,0,0-.35,2.29,2.83,2.83,0,0,0,.88,2.31,3.49,3.49,0,0,0,2.31.73,5.64,5.64,0,0,0,3.5-1.15,19.88,19.88,0,0,0,2.73-2.51l.59-.7a6.43,6.43,0,0,0-.08,1,3.55,3.55,0,0,0,.68,2.23,2.39,2.39,0,0,0,2,.88,4.6,4.6,0,0,0,2.18-.6,9.58,9.58,0,0,0,2.11-1.56,15.42,15.42,0,0,0,1.76-2,10.9,10.9,0,0,0,1.17-1.9,8,8,0,0,0,.77-3.22,3.67,3.67,0,0,0-.7-2.31Zm-.66,3.86a10.9,10.9,0,0,1-.92,2.25,9.68,9.68,0,0,1-.79,1.34,13.11,13.11,0,0,1-1.23,1.56,8.07,8.07,0,0,1-1.47,1.3,2.73,2.73,0,0,1-1.54.53,1.06,1.06,0,0,1-.26,0,.9.9,0,0,1-.22-.06c-.56-.15-.84-.66-.84-1.54a10.28,10.28,0,0,1,1.32-4.29,12.06,12.06,0,0,1,1.47-2.38,8.4,8.4,0,0,1,1.74-1.7,3,3,0,0,1,1.7-.64c.88,0,1.32.59,1.32,1.76a7.57,7.57,0,0,1-.29,1.89Z" />
            <path class="cls-13" d="M233.58,14.83a.57.57,0,0,0-.18.11c-.2.27-.41.54-.64.81l-.71.81a18.32,18.32,0,0,1-1.39,1.3,19.82,19.82,0,0,1-2.34,1.7q1.4-3,2.27-5.42c.59-1.61,1.07-3.13,1.46-4.54a3,3,0,0,0-.33-.44.9.9,0,0,0-.7-.37.91.91,0,0,0-.59.26l-.22.81A17,17,0,0,1,229,12.44c-.49.89-1,1.73-1.54,2.53s-1,1.48-1.48,2.07-.79,1-1,1.25a5.92,5.92,0,0,1-1.1,1.1,1.49,1.49,0,0,1-.77.33.51.51,0,0,1-.48-.29,1.7,1.7,0,0,1-.15-.77,6.18,6.18,0,0,1,.66-2.56c.37-.81.78-1.65,1.23-2.53s.87-1.68,1.26-2.42.68-1.27.88-1.61a1.9,1.9,0,0,0,.33-.84c0-.27-.18-.4-.55-.4a2.85,2.85,0,0,0-1.32.46,2.6,2.6,0,0,0-1.1,1.08l-.93,2c-.35.74-.7,1.5-1,2.27-.24.53-.43,1-.61,1.48,0,.06-.11.12-.16.19-.22.27-.46.55-.73.84s-.64.71-1.1,1.19A10.55,10.55,0,0,1,217.88,19a2.51,2.51,0,0,1-1.45.55c-.22,0-.33-.13-.33-.4a3,3,0,0,1,.31-1.12q.32-.72.75-1.5c.29-.52.57-1,.82-1.41s.43-.7.53-.84c.51-.78,1-1.58,1.54-2.4a4.23,4.23,0,0,0,.77-2.14,1.23,1.23,0,0,0-.44-1,1.59,1.59,0,0,0-1-.37,3.25,3.25,0,0,0-1.74.64,12.91,12.91,0,0,0-2,1.65c-.67.67-1.31,1.37-1.92,2.09s-1.15,1.39-1.61,2-.81,1.05-1,1.32c.41-1,.87-1.92,1.36-2.84s.85-1.59,1.1-2c.34-.64.66-1.2,1-1.7s.49-.84.57-1a3,3,0,0,0-2,.16,2.18,2.18,0,0,0-1,1c-.86,1.76-1.61,3.5-2.28,5.23,0,0,0,0-.06,0a.3.3,0,0,0-.18.11,9.48,9.48,0,0,1-.62.77c-.22.24-.46.5-.73.77a20.36,20.36,0,0,1-1.52,1.58A7.11,7.11,0,0,1,205,19.3a1.72,1.72,0,0,1-.77.29c-.24,0-.37-.16-.37-.48a2.36,2.36,0,0,1,.15-.73c.1-.29.22-.61.37-.95.27-.61.58-1.25.93-1.9s.66-1.23.93-1.7.4-.73.4-.75c.12-.24.08-.41-.11-.51a1.61,1.61,0,0,0-.73-.15,2.45,2.45,0,0,0-.71.11,1,1,0,0,0-.49.29,4.67,4.67,0,0,0-.31.44c-.11.17-.23.35-.35.55-.32.37-.75.87-1.28,1.52s-1.12,1.3-1.74,2A18.3,18.3,0,0,1,199.08,19a3.7,3.7,0,0,1-1.83.92c-.37,0-.55-.22-.55-.66a3.51,3.51,0,0,1,.09-.71,4.84,4.84,0,0,1,.35-1,15.62,15.62,0,0,1,1.54-2.77A22.25,22.25,0,0,1,201,12a17.47,17.47,0,0,1,2.31-2,3.74,3.74,0,0,1,2.09-.84,1.63,1.63,0,0,1,1.54,1.25c.1.29.26.44.48.44s.48-.18.48-.55a.87.87,0,0,0-.13-.42,1.71,1.71,0,0,0-.46-.49,4.22,4.22,0,0,0-1.36-.79,4.34,4.34,0,0,0-1.43-.24,5.71,5.71,0,0,0-2.91.9,13.4,13.4,0,0,0-2.88,2.33,18.7,18.7,0,0,0-2.34,3c-.09.15-.18.32-.27.5s-.34.44-.55.69-.56.63-.82.9a19,19,0,0,1-2.23,2.11A9.68,9.68,0,0,1,190.42,20a13.08,13.08,0,0,1-2.31.73,11.65,11.65,0,0,0,2.51-2A15.72,15.72,0,0,0,194,13.13a8.07,8.07,0,0,0,.48-2.58,2.82,2.82,0,0,0-.38-1.47,1.58,1.58,0,0,0-1.45-.62,3.46,3.46,0,0,0-2,1,18.8,18.8,0,0,0-2.4,2.51c-.83,1-1.63,2.12-2.4,3.28s-1.47,2.23-2.11,3.21c1.39-2.76,2.77-5.23,4.12-7.4a62.73,62.73,0,0,1,4.27-6,12.31,12.31,0,0,0-1.34.33A5.1,5.1,0,0,0,189,6.44a14.4,14.4,0,0,0-2.34,3q-.84,1.25-1.89,3.15c-.42.76-.84,1.58-1.28,2.43h0a.22.22,0,0,0-.18.11c-.1.12-.29.34-.57.64s-.54.6-.79.9a16,16,0,0,1-1.5,1.59,6.5,6.5,0,0,1-1.65,1.15,1.66,1.66,0,0,1-.88.29c-.32,0-.48-.2-.48-.59a4,4,0,0,1,.51-1.58,14.72,14.72,0,0,1,1-1.61l1.32-1.9A16,16,0,0,0,181.42,12a3.83,3.83,0,0,0,.46-1.65,1.46,1.46,0,0,0-.27-.88,1.2,1.2,0,0,0-1-.37,3.17,3.17,0,0,0-1.7.64,12.66,12.66,0,0,0-2,1.69c-.68.7-1.35,1.43-2,2.2a25,25,0,0,0-1.7,2.23,17.71,17.71,0,0,0-1.1,1.78c.15-.32.35-.71.6-1.19l.81-1.47c.28-.5.52-.93.71-1.3.34-.68.68-1.3,1-1.85a2.93,2.93,0,0,0,.49-1.48,1.48,1.48,0,0,0-.28-.9,1.15,1.15,0,0,0-1-.38,2.94,2.94,0,0,0-1.58.57,11.75,11.75,0,0,0-1.79,1.45c-.61.59-1.2,1.21-1.78,1.87s-1.09,1.28-1.54,1.85-.79,1-1,1.34c.41-1,.87-1.92,1.36-2.84s.85-1.59,1.1-2c.34-.64.67-1.2,1-1.7a11,11,0,0,0,.57-1,3,3,0,0,0-2,.16,2.18,2.18,0,0,0-1,1c-.9,1.86-1.7,3.69-2.4,5.51a49.3,49.3,0,0,1-2.62,5.66,1.26,1.26,0,0,1,.48-.17l.59,0a4.47,4.47,0,0,0,.75-.09.59.59,0,0,0,.38-.38,20,20,0,0,1,1.47-2.33c.63-.89,1.33-1.8,2.09-2.73s1.51-1.79,2.25-2.6a20.52,20.52,0,0,1,2-1.94,4,4,0,0,1,1-.71c.21-.06.31,0,.31.2a1.45,1.45,0,0,1-.13.51c-.09.22-.19.46-.31.73-.37.71-.81,1.5-1.32,2.36s-1,1.72-1.36,2.55a5.25,5.25,0,0,0-.59,2.16q0,.51.27.66a1,1,0,0,0,.49.15h.11a1.11,1.11,0,0,0,.88-.37,3.23,3.23,0,0,0,.51-.73,22.25,22.25,0,0,1,2-3q1.11-1.41,2.22-2.58a26.85,26.85,0,0,1,2-1.94,4.53,4.53,0,0,1,1-.73c.21-.07.31,0,.31.15a2.49,2.49,0,0,1-.37,1c-.24.46-.53.95-.84,1.47s-.61,1-.88,1.36l-.48.7a15.76,15.76,0,0,0-1.19,2.4,6.18,6.18,0,0,0-.49,2.22,1.91,1.91,0,0,0,.33,1.15,1.26,1.26,0,0,0,1.1.46,4.51,4.51,0,0,0,2.93-1.47,9.14,9.14,0,0,0,.9-.86c.28-.3.54-.62.79-.93s.48-.55.71-.82c-.73,1.49-1.42,3-2.09,4.54s-1.28,3.05-1.81,4.51a32.78,32.78,0,0,0-1.21,3.9,4.61,4.61,0,0,0-.15,1.21,6.2,6.2,0,0,0,.18,1.54,3,3,0,0,0,.42,1c.16.21.26.21.31,0q.76-2.75,1.76-6.06a47,47,0,0,1,2.71-6.9,1,1,0,0,0,.51.9,2.53,2.53,0,0,0,1,.27l.62.06.66,0a11.89,11.89,0,0,0,2.89-.33,11.55,11.55,0,0,0,3.46-1.52,16.82,16.82,0,0,0,2.8-2.33l.56-.64a5.76,5.76,0,0,0-.37,1.92,2.19,2.19,0,0,0,.48,1.43,2.07,2.07,0,0,0,1.68.59,3.7,3.7,0,0,0,2.23-.77,10.58,10.58,0,0,0,2-1.92,23.37,23.37,0,0,0,1.67-2.33c-.1.29-.2.57-.31.84a4.15,4.15,0,0,0-.24.81,5.77,5.77,0,0,0-.26,1.58,1.88,1.88,0,0,0,.4,1.34,1.32,1.32,0,0,0,1,.42,4.47,4.47,0,0,0,2.89-1.47c.29-.27.58-.55.86-.86s.56-.62.82-.93.57-.64.84-1c.09-.12.19-.23.28-.34A49,49,0,0,1,207,21a1.26,1.26,0,0,1,.48-.17l.59,0a6.36,6.36,0,0,0,.82-.09.71.71,0,0,0,.49-.38c.27-.46.51-.91.73-1.34a10.37,10.37,0,0,1,.77-1.26c.51-.71,1.06-1.44,1.63-2.2a25.21,25.21,0,0,1,1.78-2.12,11.24,11.24,0,0,1,.86-1c.43-.44.88-.9,1.37-1.37s.95-.89,1.37-1.25.71-.53.86-.53.26.07.26.22a3.17,3.17,0,0,1-.48,1.45c-.32.57-.71,1.2-1.19,1.89s-.95,1.39-1.41,2.11a18,18,0,0,0-1.17,2.11,4.51,4.51,0,0,0-.48,1.9,2.71,2.71,0,0,0,.31,1.36,1.29,1.29,0,0,0,1.23.55,4.51,4.51,0,0,0,2.93-1.47c.29-.27.58-.55.86-.86s.56-.62.82-.93.3-.34.45-.51a.45.45,0,0,1,0,.11,6,6,0,0,0-.13,1.28,3.32,3.32,0,0,0,.37,1.56,1.44,1.44,0,0,0,1.43.71,3.24,3.24,0,0,0,2.14-1,15.48,15.48,0,0,0,2.23-2.53A36.81,36.81,0,0,0,228.91,14c-.42,1.15-.89,2.3-1.43,3.46s-1.11,2.29-1.72,3.39a17.13,17.13,0,0,1-1.61,1c-.76.44-1.6,1-2.53,1.58a27.08,27.08,0,0,0-2.69,2A10.85,10.85,0,0,0,216.79,28a5.11,5.11,0,0,0-.84,2.78,2.11,2.11,0,0,0,.57,1.58,2.18,2.18,0,0,0,1.59.55,4.81,4.81,0,0,0,3-1,11,11,0,0,0,2.49-2.75,31.25,31.25,0,0,0,2.14-3.83c.67-1.4,1.31-2.83,1.92-4.27a21.59,21.59,0,0,0,2.4-1.59,14.3,14.3,0,0,0,2-1.74c.29-.34.57-.68.82-1s.52-.65.79-1a.5.5,0,0,0,.15-.37c0-.22-.07-.33-.22-.33ZM184.68,21c-.49,0-.73-.22-.73-.66a2.29,2.29,0,0,1,.24-.93c.16-.35.31-.66.46-.93s.43-.71.77-1.25.73-1.12,1.15-1.74.84-1.21,1.25-1.78.74-1,1-1.32c.81-.93,1.46-1.64,2-2.12A2,2,0,0,1,192,9.49c.27,0,.4.24.4.73a7.27,7.27,0,0,1-.35,1.92,17,17,0,0,1-.75,2.11,16,16,0,0,1-1.85,3.28A11.72,11.72,0,0,1,187.09,20a4,4,0,0,1-2.4.95Zm39.87,2.93c-.38.85-.81,1.75-1.3,2.67a24.92,24.92,0,0,1-1.58,2.62,9.52,9.52,0,0,1-1.78,2,3,3,0,0,1-1.89.77,1,1,0,0,1-.95-.42,1.65,1.65,0,0,1-.26-.86,3.58,3.58,0,0,1,.68-1.92,12.53,12.53,0,0,1,1.76-2.11,25.92,25.92,0,0,1,2.29-2c.81-.64,1.56-1.2,2.27-1.7s1.27-.89,1.68-1.15c-.24.56-.56,1.27-.93,2.12Z" />
            <path class="cls-14" d="M0,.15V21H49.71V.15ZM14.47,19.94H1.8V1.18H14.45V4.45H5.86V8.72h7.32v3.16H5.86v4.81h8.61V20ZM20.94,7.26a4,4,0,0,0,1.24.83,16.28,16.28,0,0,0,2,.74,15,15,0,0,1,3.44,1.46,6,6,0,0,1,2.09,2,5,5,0,0,1,.7,2.7,4.71,4.71,0,0,1-.84,2.82,5.27,5.27,0,0,1-2.38,1.79,9.67,9.67,0,0,1-3.61.62,10.41,10.41,0,0,1-2.78-.37,7.68,7.68,0,0,1-2.46-1.13,5.85,5.85,0,0,1-1.76-1.94A5.58,5.58,0,0,1,15.89,14H20a3.46,3.46,0,0,0,.25,1.41,2.38,2.38,0,0,0,.72.93,3,3,0,0,0,1.13.52,6.19,6.19,0,0,0,1.49.16,4.17,4.17,0,0,0,1.58-.26A2,2,0,0,0,26,16a1.82,1.82,0,0,0,.3-1,2.16,2.16,0,0,0-.27-1.1A2.62,2.62,0,0,0,25,13a13.79,13.79,0,0,0-2.26-.9,23.46,23.46,0,0,1-2.4-.93,9.77,9.77,0,0,1-2-1.22A5.44,5.44,0,0,1,17,8.35a4.39,4.39,0,0,1-.5-2.16,4.4,4.4,0,0,1,.9-2.76,5.88,5.88,0,0,1,2.48-1.84A9.3,9.3,0,0,1,23.45.93a8.62,8.62,0,0,1,3.65.73,5.8,5.8,0,0,1,2.42,2,5.4,5.4,0,0,1,.86,3h-4A2.81,2.81,0,0,0,26,5.37a2.14,2.14,0,0,0-1-.91,3.66,3.66,0,0,0-1.66-.33,3.91,3.91,0,0,0-1.61.28,2.19,2.19,0,0,0-1,.75,1.82,1.82,0,0,0-.32,1A1.52,1.52,0,0,0,20.94,7.26Zm27,10.31a6.89,6.89,0,0,1-1.37,1.14,8.76,8.76,0,0,1-2.37,1.05,12.35,12.35,0,0,1-3.51.44,8.41,8.41,0,0,1-4.28-1.06A7.25,7.25,0,0,1,33.51,16a10.93,10.93,0,0,1-1-4.94V10a11.26,11.26,0,0,1,1-4.95A7.23,7.23,0,0,1,36.24,2,7.94,7.94,0,0,1,40.39.9a9.14,9.14,0,0,1,4.07.81,5.8,5.8,0,0,1,2.42,2.22,8,8,0,0,1,1,3.26H44a4.48,4.48,0,0,0-.52-1.62,2.63,2.63,0,0,0-1.1-1,4.06,4.06,0,0,0-1.84-.37,3.46,3.46,0,0,0-2.13.66,4,4,0,0,0-1.33,1.95A9.65,9.65,0,0,0,36.59,10v1.1a9.13,9.13,0,0,0,.49,3.22,4,4,0,0,0,1.45,2,4.1,4.1,0,0,0,2.38.66,6.62,6.62,0,0,0,1.46-.14,3.74,3.74,0,0,0,.94-.34,2.46,2.46,0,0,0,.55-.38V13h-3.4V10h7.46v7.56Z" />
        </g>
    </g>
</svg>