<svg xmlns="http://www.w3.org/2000/svg" xmlns:xlink="http://www.w3.org/1999/xlink" viewBox="0 0 184 81.96">
    <defs>
        <style>
            .cls-1 {
                fill: none;
            }

            .cls-2 {
                clip-path: url(#clip-path);
            }

            .cls-3 {
                fill: #fff;
            }
        </style>
        <clipPath id="clip-path" transform="translate(0 -0.04)">
            <rect class="cls-1" width="184" height="82" />
        </clipPath>
    </defs>
    <g id="Layer_2" data-name="Layer 2">
        <g id="Layer_1-2" data-name="Layer 1">
            <g class="cls-2">
                <path class="cls-3" d="M184,61.25H0v1.08H184Z" transform="translate(0 -0.04)" />
                <path class="cls-3" d="M8.26,72.53H7.9l-3.43,8.2-3.42-8.2H0v9.33H.79V77.77L.72,73.65l3.43,8.21h.61l3.46-8.25-.07,4.16v4.09h.79V72.53H8.26Z" transform="translate(0 -0.04)" />
                <path class="cls-3" d="M17.17,72.53h-.76l-3.5,9.29h.83l1-2.6h4.22l1,2.6h.83S17.17,72.53,17.17,72.53Zm-2.2,6,1.87-5.07,1.88,5.07Z" transform="translate(0 -0.04)" />
                <path class="cls-3" d="M31.2,72.53h-1l-3.5,3.69-1.26,1.33v-5h-.79v9.33h.79V78.49l1.3-1.26,3.79,4.63h1l-4.18-5.17Z" transform="translate(0 -0.04)" />
                <path class="cls-3" d="M36.32,77.37h4.32v-.65H36.32V73.21h4.94v-.68H35.52v9.33h5.77v-.69h-5Z" transform="translate(0 -0.04)" />
                <path class="cls-3" d="M54.64,72.53h-.76l-3.5,9.29h.83l1-2.6H56.4l1,2.6h.83Zm-2.24,6,1.88-5.07,1.87,5.07Z" transform="translate(0 -0.04)" />
                <path class="cls-3" d="M73.79,78.13a2.38,2.38,0,0,0-.72-.83,1.78,1.78,0,0,0-.83-.33c.18-.07.36-.14.5-.21a1.82,1.82,0,0,0,.72-.76,2.07,2.07,0,0,0,.26-1,2.12,2.12,0,0,0-.8-1.84,3.63,3.63,0,0,0-2.23-.58H68v9.29h3.13a3.14,3.14,0,0,0,2.13-.69A2.35,2.35,0,0,0,74,79.18,2.74,2.74,0,0,0,73.79,78.13Zm-5.05-4.92h2a2.63,2.63,0,0,1,1.66.44,1.58,1.58,0,0,1,.57,1.3,1.5,1.5,0,0,1-.57,1.3,2.55,2.55,0,0,1-1.59.44h-2Zm3.93,7.45a2.29,2.29,0,0,1-1.59.51H68.74v-3.8h2.41a2.37,2.37,0,0,1,1.2.26,1.36,1.36,0,0,1,.68.68,2.2,2.2,0,0,1,.22.94A1.79,1.79,0,0,1,72.67,80.66Z" transform="translate(0 -0.04)" />
                <path class="cls-3" d="M79.34,77.37h4.33v-.65H79.34V73.21h4.94v-.68H78.55v9.33h5.77v-.69h-5Z" transform="translate(0 -0.04)" />
                <path class="cls-3" d="M91.06,72.53H87.89v.68h3.17v8.65h.76V73.21H95v-.68h-4Z" transform="translate(0 -0.04)" />
                <path class="cls-3" d="M101.56,72.53H98.38v.68h3.18v8.65h.79V73.21h3.17v-.68h-4Z" transform="translate(0 -0.04)" />
                <path class="cls-3" d="M110.43,77.37h4.33v-.65h-4.33V73.21h4.94v-.68h-5.73v9.33h5.77v-.69h-5Z" transform="translate(0 -0.04)" />
                <path class="cls-3" d="M123.88,77.81a4.17,4.17,0,0,0,.9-.44,2.53,2.53,0,0,0,.76-.9,2.65,2.65,0,0,0,.29-1.19,2.8,2.8,0,0,0-.4-1.49,2.56,2.56,0,0,0-1.08-.94,4.13,4.13,0,0,0-1.66-.32h-3v9.29h.8V78h2.7l2.24,3.87h.82v-.07Zm-1-.51h-2.37V73.21h2.23a2.6,2.6,0,0,1,1.77.55,1.94,1.94,0,0,1,.61,1.52,2,2,0,0,1-.25,1,2.18,2.18,0,0,1-.72.76A3.37,3.37,0,0,1,122.83,77.3Z" transform="translate(0 -0.04)" />
                <path class="cls-3" d="M141,77.41a7.59,7.59,0,0,0-1.66-.62,9.55,9.55,0,0,1-1.48-.54,2.09,2.09,0,0,1-.79-.65,1.56,1.56,0,0,1,0-1.66,1.56,1.56,0,0,1,.79-.62,3.47,3.47,0,0,1,1.3-.21,2.78,2.78,0,0,1,1.3.28,2,2,0,0,1,.83.76,2.24,2.24,0,0,1,.28,1.09h.8a2.78,2.78,0,0,0-.4-1.41,2.46,2.46,0,0,0-1.12-1,3.46,3.46,0,0,0-1.69-.37,4.46,4.46,0,0,0-1.62.29,2.91,2.91,0,0,0-1.12.84,2.23,2.23,0,0,0-.18,2.24,2.32,2.32,0,0,0,.61.72,3.17,3.17,0,0,0,.94.54c.36.15.79.29,1.26.44a6.37,6.37,0,0,1,1.52.58,1.81,1.81,0,0,1,.79.65,1.74,1.74,0,0,1,.21.86,1.6,1.6,0,0,1-.28.91,1.84,1.84,0,0,1-.83.61,3.35,3.35,0,0,1-1.27.22,4,4,0,0,1-.93-.11,2.55,2.55,0,0,1-.87-.36,2.09,2.09,0,0,1-.61-.65,2,2,0,0,1-.22-1h-.79a2.73,2.73,0,0,0,.29,1.26,2.1,2.1,0,0,0,.83.87,4.44,4.44,0,0,0,1.11.51,5.16,5.16,0,0,0,1.23.14,4.9,4.9,0,0,0,1.66-.29,2.45,2.45,0,0,0,1.12-.83,2.39,2.39,0,0,0,0-2.57A3,3,0,0,0,141,77.41Z" transform="translate(0 -0.04)" />
                <path class="cls-3" d="M152.66,73.87a2.49,2.49,0,0,0-1-1,4,4,0,0,0-1.73-.36h-3.17v9.29h.79V78h2.38a4.18,4.18,0,0,0,1.73-.32,2.25,2.25,0,0,0,1-.94,3.08,3.08,0,0,0,.36-1.48A2.86,2.86,0,0,0,152.66,73.87ZM152,76.4a1.53,1.53,0,0,1-.76.72,3,3,0,0,1-1.34.29H147.5V73.25h2.38a2.86,2.86,0,0,1,1.34.29,2.3,2.3,0,0,1,.76.76,2.17,2.17,0,0,1,.25,1A2.29,2.29,0,0,1,152,76.4Z" transform="translate(0 -0.04)" />
                <path class="cls-3" d="M159.66,72.53h-.76l-3.5,9.29h.83l1-2.6h4.22l1,2.6h.83Zm-2.24,6,1.88-5.07,1.87,5.07Z" transform="translate(0 -0.04)" />
                <path class="cls-3" d="M167.91,74.73a2.83,2.83,0,0,1,.94-1.23,2.87,2.87,0,0,1,3.28.18,2.86,2.86,0,0,1,.76,1.74h.8a3.73,3.73,0,0,0-.51-1.63,3.23,3.23,0,0,0-1.12-1.05,3.63,3.63,0,0,0-1.73-.36,3.49,3.49,0,0,0-1.87.51,3.27,3.27,0,0,0-1.23,1.48,5.25,5.25,0,0,0-.43,2.21v1.15a5.31,5.31,0,0,0,.43,2.21,3.5,3.5,0,0,0,1.23,1.48,3.13,3.13,0,0,0,1.84.51,3.76,3.76,0,0,0,1.76-.36,2.75,2.75,0,0,0,1.16-1,3.36,3.36,0,0,0,.5-1.63h-.79a4.14,4.14,0,0,1-.4,1.3,2,2,0,0,1-.86.8,3.14,3.14,0,0,1-1.37.25,2.38,2.38,0,0,1-1.48-.47,2.6,2.6,0,0,1-.91-1.26,4.94,4.94,0,0,1-.32-1.81V76.5A5,5,0,0,1,167.91,74.73Z" transform="translate(0 -0.04)" />
                <path class="cls-3" d="M179,81.17v-3.8h4.33v-.65H179V73.21H184v-.68h-5.73v9.33H184v-.69Z" transform="translate(0 -0.04)" />
                <path class="cls-3" d="M82.15,50.4,71.66,33.91l1.51-.07a17.74,17.74,0,0,0,3.57-.4A9.25,9.25,0,0,0,84.35,24a7.4,7.4,0,0,0-1.22-3.8c-2.31-4-7.76-4.52-12.26-4.52H63.55v2.06h8.22c3.39,0,5.91.62,7.5,1.85a6.35,6.35,0,0,1,2.81,5.09,6.53,6.53,0,0,1-2.81,5.17c-1.55,1.23-4,1.85-7.21,1.85H67.48l12,18.69Z" transform="translate(0 -0.04)" />
                <path class="cls-3" d="M53.56,38V15.69h-2.2V37.13c0,10.09-5,12.19-9.16,12.19-9.09,0-9.09-8.65-9.09-11.47V15.69H30.83V38c0,9.15,3.58,13.24,11.62,13.24C50,51.2,53.56,47,53.56,38Z" transform="translate(0 -0.04)" />
                <path class="cls-3" d="M2.27,50.4V33.88H8.51a24.8,24.8,0,0,0,5.23-.4A9.23,9.23,0,0,0,21.31,24a7.39,7.39,0,0,0-1.22-3.79c-2.31-4-7.76-4.52-12.26-4.52H0v2.06H8.73c3.39,0,5.91.61,7.5,1.84A6.38,6.38,0,0,1,19,24.73a6.55,6.55,0,0,1-2.81,5.17c-1.55,1.23-4,1.84-7.21,1.84H0v18.7Z" transform="translate(0 -0.04)" />
                <path class="cls-3" d="M96.69,50.4l0-34.74H94.49l0,34.74Z" transform="translate(0 -0.04)" />
                <path class="cls-3" d="M184,50.51V29.14c0-4.19-.65-7.37-1.95-9.51l0,0c-1.59-2.57-4.37-3.84-8.44-3.84a11.91,11.91,0,0,0-9.49,4.45l-.68.76-.65-.8a11.59,11.59,0,0,0-9.34-4.41,13.27,13.27,0,0,0-4.87.73c-5.81,2.31-7,6.58-7,12.69V50.51h2.16V29.65a37.63,37.63,0,0,1,.26-5.14v0c.9-4.27,4.29-6.84,9.08-6.84,5.92,0,8.91,3.37,8.91,10V50.47h2V29.65a27.2,27.2,0,0,1,.29-5.17c.83-4.27,4.18-6.84,8.94-6.84,7.72,0,8.73,5.43,8.73,10.74V50.47Z" transform="translate(0 -0.04)" />
                <path class="cls-3" d="M131.6,38V15.69h-2.2V37.13c0,10.09-5,12.19-9.16,12.19-9.09,0-9.09-8.65-9.09-11.47V15.69h-2.27V38c0,9.15,3.57,13.24,11.61,13.24C128.06,51.2,131.6,47,131.6,38Z" transform="translate(0 -0.04)" />
                <path class="cls-3" d="M23.3,6.65a3.78,3.78,0,0,0-.62-.07,4.22,4.22,0,0,0-.93.11,4,4,0,0,1-.9.11c-.26,0-.37-.11-.37-.33a1.33,1.33,0,0,1,.15-.61c.11-.22.22-.47.32-.69s.22-.4.29-.54c.22-.4.43-.76.69-1.2a9.26,9.26,0,0,0,.65-1.19c.14-.29.25-.54.36-.76A2.19,2.19,0,0,0,23.08.9,1.13,1.13,0,0,0,23,.43a.33.33,0,0,0-.32-.25.13.13,0,0,0-.11,0,2.38,2.38,0,0,1-.25,1,9.4,9.4,0,0,1-.58,1.2c-.22.43-.47.79-.68,1.15a13,13,0,0,0-.87,1.59,3.49,3.49,0,0,0-.36,1.45.82.82,0,0,0,.11.36.73.73,0,0,0,.32.33,1,1,0,0,0,.62.14,1.66,1.66,0,0,0,.5-.07,5.46,5.46,0,0,0,.72-.15c.25,0,.51-.1.76-.14A4.54,4.54,0,0,1,23.44,7h.18A.42.42,0,0,0,23.3,6.65Z" transform="translate(0 -0.04)" />
                <path class="cls-3" d="M40.1,2.21a.42.42,0,0,0,.29-.11.79.79,0,0,0,.18-.29.28.28,0,0,0-.07-.29.35.35,0,0,0-.29-.11.41.41,0,0,0-.32.14.45.45,0,0,0-.15.33.28.28,0,0,0,.11.22A.4.4,0,0,0,40.1,2.21Z" transform="translate(0 -0.04)" />
                <path class="cls-3" d="M49.84,5.39s0,0-.07,0-.15.18-.22.29-.18.18-.25.29a6.82,6.82,0,0,1-.51.47,5,5,0,0,1-.68.51L48,7.09c.07-.37.14-.73.18-1.09s0-.69,0-.94V4.74a.53.53,0,0,0,0-.22.12.12,0,0,1-.11,0h-.11a.5.5,0,0,0-.29.11c-.11.07-.14.18-.22.4a2.71,2.71,0,0,1-.28.61,4.39,4.39,0,0,1-.51.76,2.32,2.32,0,0,1-.58.62,1.16,1.16,0,0,1-.54.25c-.18,0-.29-.11-.29-.36a2.58,2.58,0,0,1,.18-.72,7.48,7.48,0,0,1,.47-.94c.22-.33.44-.65.65-.94a5.11,5.11,0,0,1,.76-.73,1.42,1.42,0,0,1,.79-.29c.26,0,.47.15.58.51a.18.18,0,0,0,.18.14c.11,0,.15-.07.15-.21a.46.46,0,0,0-.22-.33,1.71,1.71,0,0,0-1-.36,2.14,2.14,0,0,0-1,.29,3.74,3.74,0,0,0-.9.76,3.12,3.12,0,0,0-.4.51,5.72,5.72,0,0,0-.43.75s0,0,0,.08,0,0,0,0-.14.18-.25.29a1.61,1.61,0,0,0-.25.29c-.11.11-.22.25-.4.44s-.32.32-.5.47a.81.81,0,0,1-.51.18c-.07,0-.11,0-.11-.15a1.15,1.15,0,0,1,.11-.4A3.56,3.56,0,0,1,43.24,6c.11-.18.22-.36.29-.5s.14-.26.18-.29l.54-.87a1.55,1.55,0,0,0,.29-.76.64.64,0,0,0-.14-.36A.68.68,0,0,0,44,3.07a1.2,1.2,0,0,0-.61.22,7.63,7.63,0,0,0-.72.58c-.25.25-.47.5-.69.76a7.74,7.74,0,0,0-.57.72,4,4,0,0,1-.36.47,7.91,7.91,0,0,1,.5-1,7,7,0,0,1,.4-.72c.11-.22.25-.44.36-.62l.22-.36a.66.66,0,0,0-.29,0,1,1,0,0,0-.44.11.74.74,0,0,0-.36.36c-.32.65-.57,1.27-.83,1.88h0s0,0-.07,0-.15.18-.22.29a1.87,1.87,0,0,0-.25.29c-.07.11-.22.21-.36.4s-.36.32-.54.47a.87.87,0,0,1-.51.21A.34.34,0,0,1,38.37,7c-.07-.07-.07-.18-.07-.32a3.55,3.55,0,0,1,.14-.8c.11-.29.26-.58.4-.86s.33-.58.51-.87.32-.51.46-.73a.24.24,0,0,0,.08-.18c0-.07-.08-.1-.15-.1a.93.93,0,0,0-.47.14.63.63,0,0,0-.32.25,5.42,5.42,0,0,0-.33.55,10.54,10.54,0,0,0-.54,1c-.07.15-.1.29-.18.44l-.21.28a3.58,3.58,0,0,1-.26.29c-.18.18-.36.4-.54.58a2.21,2.21,0,0,1-.57.4.62.62,0,0,1-.29.11c-.15,0-.22-.11-.22-.29A2.27,2.27,0,0,1,36,6.15a11.19,11.19,0,0,1,.43-1.05c.19-.36.37-.76.55-1.12,0,0,.07,0,.1-.08a.23.23,0,0,0,.08-.14s0,0,0-.11c.22-.43.4-.79.58-1.08s.32-.58.5-.87.33-.51.51-.76.39-.54.61-.87a1.68,1.68,0,0,0-1,.4,3.18,3.18,0,0,0-.69.9c-.22.4-.47.84-.79,1.38L36.75,3a2.26,2.26,0,0,0-.11.26A1.44,1.44,0,0,0,36,3.07a2,2,0,0,0-1.05.33,5.71,5.71,0,0,0-1,.83A5.36,5.36,0,0,0,33,5.31a.82.82,0,0,0-.1.19.14.14,0,0,0-.08,0s0,0-.07,0l-.21.28a3.79,3.79,0,0,0-.26.29c-.18.18-.36.4-.54.58a4.65,4.65,0,0,1-.57.44.59.59,0,0,1-.29.1A.16.16,0,0,1,30.76,7a1.22,1.22,0,0,1,.07-.25A3.12,3.12,0,0,1,31,6.4c.11-.22.22-.47.32-.69s.26-.43.33-.61a.85.85,0,0,0,.14-.29c0-.07,0-.15,0-.18a.53.53,0,0,0-.26,0,.55.55,0,0,0-.25,0,.61.61,0,0,0-.18.11s-.07.1-.11.14l-.11.22c-.1.14-.28.32-.46.54s-.4.47-.62.72A4.16,4.16,0,0,1,29.1,7a1.3,1.3,0,0,1-.65.32c-.14,0-.21-.07-.21-.25a.84.84,0,0,1,0-.25,2.57,2.57,0,0,0,.11-.36,6.09,6.09,0,0,1,.54-1,6.29,6.29,0,0,1,.83-1,6.66,6.66,0,0,1,.83-.72,1.23,1.23,0,0,1,.76-.29c.25,0,.43.14.54.47a.18.18,0,0,0,.18.14c.11,0,.18-.07.18-.21a.27.27,0,0,0,0-.15A1.46,1.46,0,0,0,32,3.47a2.08,2.08,0,0,0-.65-.36A1.29,1.29,0,0,0,30.87,3a2.11,2.11,0,0,0-1,.32,5.48,5.48,0,0,0-1,.83A4.84,4.84,0,0,0,28,5.28c0,.07-.07.14-.14.25s-.11.15-.18.22a2.26,2.26,0,0,1-.26.29l-.32.32-.29.29a4.6,4.6,0,0,0-.43.33,3.73,3.73,0,0,1-.62.36,1.31,1.31,0,0,1-.61.14.55.55,0,0,1-.32-.1c-.11-.08-.11-.19-.11-.37V6.87a.35.35,0,0,1,0-.15c0-.1,0-.21.08-.32s.07-.22.1-.33a4.61,4.61,0,0,0,1.48-.57,4.12,4.12,0,0,0,1.16-1,.91.91,0,0,0,.21-.36,1.07,1.07,0,0,0,.08-.29.68.68,0,0,0-.26-.55A.92.92,0,0,0,26.94,3a1.66,1.66,0,0,0-.83.29,3.18,3.18,0,0,0-.86.76,4.62,4.62,0,0,0-.73,1,4.7,4.7,0,0,0-.28.68,2.37,2.37,0,0,0-.15.84,1.06,1.06,0,0,0,.29.79,1.12,1.12,0,0,0,.79.29,2.22,2.22,0,0,0,1.12-.29,4,4,0,0,0,.79-.61c.18-.18.33-.36.51-.55,0,0,0,0,0-.07a1.89,1.89,0,0,0-.11.65.79.79,0,0,0,.18.51.75.75,0,0,0,.61.22,1.33,1.33,0,0,0,.79-.29,3.15,3.15,0,0,0,.73-.69c.21-.29.43-.54.61-.83a2.24,2.24,0,0,1-.11.29.62.62,0,0,0-.07.29,1.8,1.8,0,0,0-.11.58.62.62,0,0,0,.14.47.5.5,0,0,0,.36.14A1.64,1.64,0,0,0,31.7,7,2.57,2.57,0,0,0,32,6.65a2.67,2.67,0,0,0,.28-.32A1.43,1.43,0,0,0,32.6,6s.07-.11.11-.15a.13.13,0,0,0,0,.11,2.7,2.7,0,0,0-.18.83.85.85,0,0,0,.18.51.77.77,0,0,0,.62.21,1.18,1.18,0,0,0,.86-.36,4.24,4.24,0,0,0,.8-.83,10.73,10.73,0,0,0,.65-.94,1.38,1.38,0,0,0-.15.36L35.34,6a1.21,1.21,0,0,0-.07.36,1.33,1.33,0,0,0,0,.4.93.93,0,0,0,.11.47.46.46,0,0,0,.44.21,1,1,0,0,0,.5-.14,4.72,4.72,0,0,0,.58-.4L37,6.83l.1-.11c.18-.18.33-.36.51-.54s.14-.18.22-.29c0,.11,0,.18-.08.26a2.08,2.08,0,0,0,0,.43.79.79,0,0,0,.21.65.79.79,0,0,0,.51.18,1.24,1.24,0,0,0,.65-.18,2.31,2.31,0,0,0,.57-.43c.18-.18.33-.36.47-.51a1.43,1.43,0,0,0,.29-.36l.11-.11c-.22.54-.5,1.12-.79,1.7a1,1,0,0,1,.18-.07h.21a.64.64,0,0,0,.29,0,.23.23,0,0,0,.18-.14c.11-.18.18-.33.25-.47a4.57,4.57,0,0,1,.29-.47c.18-.26.4-.51.58-.8a7.32,7.32,0,0,1,.65-.76,2.31,2.31,0,0,1,.32-.32c.18-.15.33-.33.51-.51s.32-.32.5-.47A.53.53,0,0,1,44,3.29c.07,0,.11,0,.11.07a1.16,1.16,0,0,1-.18.51,5.93,5.93,0,0,1-.44.69c-.18.25-.32.5-.5.75a3.93,3.93,0,0,0-.43.76,1.77,1.77,0,0,0-.18.69,1.22,1.22,0,0,0,.1.51c.08.14.22.18.44.18a1.55,1.55,0,0,0,1-.54,3.42,3.42,0,0,0,.33-.33,2.86,2.86,0,0,0,.29-.33,1.28,1.28,0,0,0,.28-.36l0,0a1.72,1.72,0,0,0-.07.21.45.45,0,0,0,0,.22v.25a1.93,1.93,0,0,0,.15.69.59.59,0,0,0,.57.29,1.33,1.33,0,0,0,.62-.18,4,4,0,0,0,.54-.47,6.76,6.76,0,0,0,.57-.8c.18-.29.29-.5.4-.68a2.84,2.84,0,0,1-.07.94,7.73,7.73,0,0,1-.29,1.12c-.11.07-.29.18-.5.29s-.55.29-.87.43a7.46,7.46,0,0,0-1,.58,9,9,0,0,0-1,.69,3.92,3.92,0,0,0-.76.83,1.59,1.59,0,0,0-.32.94.73.73,0,0,0,.18.54,1,1,0,0,0,.72.25,2.74,2.74,0,0,0,1.37-.39,4.45,4.45,0,0,0,1.23-1.09,7.43,7.43,0,0,0,1-1.48A7.74,7.74,0,0,0,48,7.34l.33-.22c.21-.14.43-.32.65-.5a3.82,3.82,0,0,0,.39-.37L50,5.57A.18.18,0,0,0,50,5.42c0-.07,0-.11-.07-.11ZM25.68,4.52a3.77,3.77,0,0,1,1.15-1,.85.85,0,0,1,.36-.11c.15,0,.22.08.22.19a.4.4,0,0,1-.11.25,3.7,3.7,0,0,1-.72.83c-.29.25-.58.47-.87.69a4.54,4.54,0,0,1-.79.43A5.83,5.83,0,0,1,25.68,4.52Zm10,.43a4.5,4.5,0,0,1-.47.55c-.21.21-.39.47-.65.72s-.47.43-.65.61a1.27,1.27,0,0,1-.64.33c-.15,0-.22-.07-.22-.25a.86.86,0,0,1,0-.26,2.22,2.22,0,0,0,.11-.36,6.05,6.05,0,0,1,.54-1,6.29,6.29,0,0,1,.83-1,5.64,5.64,0,0,1,.83-.73,1.3,1.3,0,0,1,.76-.29c.11,0,.18,0,.25,0a7.75,7.75,0,0,0-.39.83C35.85,4.45,35.7,4.7,35.63,5Zm10.86,4.2a8,8,0,0,1-.87,1.26,5,5,0,0,1-1,1,2,2,0,0,1-1,.4.56.56,0,0,1-.43-.18.54.54,0,0,1-.11-.33,1.79,1.79,0,0,1,.4-1,6.79,6.79,0,0,1,.86-.83,9.17,9.17,0,0,1,1.08-.68c.4-.22.72-.4,1.05-.55s.54-.29.68-.36A9,9,0,0,1,46.49,9.15Z" transform="translate(0 -0.04)" />
                <path class="cls-3" d="M58.93,3.36A1,1,0,0,0,58.14,3a2,2,0,0,0-.94.29,4.15,4.15,0,0,0-.9.79,4.28,4.28,0,0,0-.69,1.09,1.8,1.8,0,0,0-.14.43l-.08.07c-.07.07-.14.18-.25.29a8.51,8.51,0,0,1-.79.8,2.54,2.54,0,0,1-.94.54,1.46,1.46,0,0,1-.5.11.38.38,0,0,1-.36-.15.55.55,0,0,1-.11-.36,1.75,1.75,0,0,1,.11-.61,2.87,2.87,0,0,1,.25-.62c.07-.18.14-.32.18-.4a4,4,0,0,1,.65-.86,4.28,4.28,0,0,1,.75-.69c.26-.18.44-.25.58-.22a1,1,0,0,1,0,.26c0,.14-.11.25-.15.39a.83.83,0,0,1-.11.29,2.15,2.15,0,0,0-.07.26c0,.07,0,.1.07.1a.52.52,0,0,0,.22-.1,4,4,0,0,0,.32-.37.64.64,0,0,0,.15-.47.85.85,0,0,0-.22-.57.66.66,0,0,0-.57-.26,1.6,1.6,0,0,0-.83.29,3.26,3.26,0,0,0-.83.76,6,6,0,0,0-.69,1,4.74,4.74,0,0,0-.25.69,3.84,3.84,0,0,0-.15.83,1,1,0,0,0,.33.83,1.27,1.27,0,0,0,.83.26,2.2,2.2,0,0,0,1.26-.4,7.65,7.65,0,0,0,1-.9c.08-.08.15-.19.22-.26a1,1,0,0,0,0,.36,1.19,1.19,0,0,0,.26.8.79.79,0,0,0,.72.32,1.8,1.8,0,0,0,.79-.21,3.84,3.84,0,0,0,.76-.58,4.36,4.36,0,0,0,.65-.72A5.74,5.74,0,0,0,59,5.46a2.91,2.91,0,0,0,.29-1.16A2.39,2.39,0,0,0,58.93,3.36Zm-.22,1.41a4.84,4.84,0,0,1-.32.83,2.31,2.31,0,0,1-.29.47c-.14.18-.29.37-.43.58a2.37,2.37,0,0,1-.54.47.79.79,0,0,1-.55.18h-.1s0,0-.08,0c-.21,0-.28-.26-.28-.55a3.7,3.7,0,0,1,.46-1.55,3.67,3.67,0,0,1,.55-.87,2.93,2.93,0,0,1,.61-.61,1.11,1.11,0,0,1,.61-.22c.33,0,.47.22.47.65A3.09,3.09,0,0,1,58.71,4.77Z" transform="translate(0 -0.04)" />
                <path class="cls-3" d="M84.25,5.35a.12.12,0,0,0-.08,0c-.07.11-.14.18-.21.29s-.18.18-.25.29-.29.28-.51.47-.5.39-.83.61c.33-.72.61-1.37.83-1.95s.4-1.12.54-1.63c0,0,0-.07-.11-.14a.33.33,0,0,0-.25-.15.35.35,0,0,0-.22.11l-.07.29a7.57,7.57,0,0,1-.43.94c-.18.32-.36.61-.54.9a6.24,6.24,0,0,1-.54.76,5.5,5.5,0,0,0-.36.47,2.12,2.12,0,0,1-.4.4.62.62,0,0,1-.29.11.21.21,0,0,1-.18-.11.83.83,0,0,1,0-.29,2,2,0,0,1,.25-.94c.14-.29.29-.58.43-.9a7,7,0,0,1,.47-.87c.14-.25.25-.47.32-.58a.62.62,0,0,0,.11-.29c0-.11-.07-.14-.21-.14a.73.73,0,0,0-.47.18,1,1,0,0,0-.4.4,5,5,0,0,0-.32.72,5.22,5.22,0,0,0-.37.83l-.21.54-.07.07c-.08.11-.18.19-.26.29s-.21.26-.39.44-.33.32-.51.47a.81.81,0,0,1-.5.18c-.07,0-.11,0-.11-.15a1.17,1.17,0,0,1,.11-.39,3.65,3.65,0,0,1,.29-.55c.1-.18.21-.36.28-.5s.15-.26.18-.29l.55-.87a1.52,1.52,0,0,0,.28-.76.46.46,0,0,0-.14-.36.67.67,0,0,0-.36-.14,1.15,1.15,0,0,0-.61.21c-.22.15-.47.36-.73.58s-.46.51-.68.76-.4.51-.58.72-.29.4-.36.47a10.6,10.6,0,0,1,.51-1c.18-.32.32-.58.39-.72s.26-.44.36-.62l.22-.36a.83.83,0,0,0-.29,0,1,1,0,0,0-.43.1.72.72,0,0,0-.36.37c-.33.65-.58,1.26-.83,1.88h0s0,0-.07,0-.14.18-.22.29a1.87,1.87,0,0,0-.25.29c-.18.18-.36.4-.54.58a5.34,5.34,0,0,1-.58.43.56.56,0,0,1-.28.11.16.16,0,0,1-.15-.18c0-.07,0-.14,0-.25a1.88,1.88,0,0,1,.14-.36c.11-.22.22-.47.33-.69a5.34,5.34,0,0,0,.32-.62c.11-.18.15-.25.15-.29s0-.14,0-.18a.64.64,0,0,0-.25,0,.77.77,0,0,0-.26,0L74,4.77l-.1.15a.91.91,0,0,1-.15.21c-.11.15-.29.33-.47.55l-.61.72A5.19,5.19,0,0,1,72,7a1.29,1.29,0,0,1-.65.33c-.14,0-.22-.07-.22-.25a.66.66,0,0,1,0-.26,2.33,2.33,0,0,1,.15-.36,8,8,0,0,1,.54-1,5.38,5.38,0,0,1,.83-1,6.89,6.89,0,0,1,.83-.73,1.27,1.27,0,0,1,.75-.29c.25,0,.44.15.54.47a.19.19,0,0,0,.18.15c.11,0,.18-.07.18-.22s0-.11,0-.14A.44.44,0,0,0,75,3.51a1.38,1.38,0,0,0-.51-.29,1.24,1.24,0,0,0-.5-.07,2,2,0,0,0-1,.32,5.74,5.74,0,0,0-1,.83,4.56,4.56,0,0,0-.83,1.09.5.5,0,0,0-.11.18c-.07.07-.11.14-.22.25a2.86,2.86,0,0,0-.29.33,8.8,8.8,0,0,1-.79.76,3.17,3.17,0,0,1-.76.43,4.08,4.08,0,0,1-.83.25,3.8,3.8,0,0,0,.9-.72,5.1,5.1,0,0,0,.73-1,4.2,4.2,0,0,0,.46-1,3,3,0,0,0,.19-.94.88.88,0,0,0-.15-.54.56.56,0,0,0-.5-.21,1.19,1.19,0,0,0-.73.36,7.5,7.5,0,0,0-.86.9c-.29.36-.58.76-.87,1.19s-.54.8-.75,1.16c.5-1,1-1.88,1.48-2.67A18.55,18.55,0,0,1,69.5,1.92L69,2a1.5,1.5,0,0,0-.62.4,9.59,9.59,0,0,0-.83,1.05c-.21.29-.43.69-.68,1.12s-.29.58-.47.87c0,0,0,0-.07,0l-.22.21c-.11.11-.18.22-.29.33s-.36.4-.54.58a1.76,1.76,0,0,1-.57.39.54.54,0,0,1-.33.11c-.11,0-.18-.07-.18-.21a1.6,1.6,0,0,1,.18-.58,4,4,0,0,1,.36-.58c.15-.22.33-.47.47-.69s.29-.47.4-.69a1.41,1.41,0,0,0,.18-.57.62.62,0,0,0-.11-.33.48.48,0,0,0-.36-.14,1.15,1.15,0,0,0-.61.21,5.25,5.25,0,0,0-.73.62,7.76,7.76,0,0,0-.72.79c-.21.29-.43.55-.61.8a4,4,0,0,0-.4.65c0-.11.15-.25.22-.43s.18-.37.29-.55A4.44,4.44,0,0,0,63,5c.11-.25.25-.47.36-.68a1.22,1.22,0,0,0,.18-.55.54.54,0,0,0-.11-.32.38.38,0,0,0-.36-.15,1.05,1.05,0,0,0-.57.22,7.65,7.65,0,0,0-.65.51,5.31,5.31,0,0,0-.65.68,6.65,6.65,0,0,0-.54.69c-.15.22-.29.36-.36.47a7.91,7.91,0,0,1,.5-1c.18-.33.33-.58.4-.72s.25-.44.36-.62a4,4,0,0,0,.21-.36.61.61,0,0,0-.28,0,1,1,0,0,0-.44.11.7.7,0,0,0-.36.36c-.32.69-.61,1.34-.86,2s-.58,1.34-.94,2.06a1.34,1.34,0,0,0,.18-.07h.22a.61.61,0,0,0,.28,0,.26.26,0,0,0,.15-.14,4.1,4.1,0,0,1,.54-.83,9.27,9.27,0,0,1,.76-1c.29-.32.54-.65.83-.94s.5-.5.72-.69A3.1,3.1,0,0,1,63,3.65c.07,0,.11,0,.11.07a.35.35,0,0,1,0,.18c0,.08-.07.19-.11.26L62.46,5c-.18.32-.36.61-.5.9a1.69,1.69,0,0,0-.22.79.3.3,0,0,0,.11.26A.45.45,0,0,0,62,7h0a.34.34,0,0,0,.32-.14,1,1,0,0,0,.18-.25c.22-.37.47-.73.72-1.09s.54-.65.8-.94a6.42,6.42,0,0,1,.72-.69c.18-.14.29-.25.36-.25s.11,0,.11,0a.8.8,0,0,1-.15.36c-.07.18-.18.32-.29.54a5,5,0,0,1-.32.51c-.11.14-.15.21-.18.25a4.39,4.39,0,0,0-.43.87,2.44,2.44,0,0,0-.18.79.6.6,0,0,0,.1.4.48.48,0,0,0,.4.18,1.55,1.55,0,0,0,1-.54,3.4,3.4,0,0,0,.32-.33c.11-.1.18-.21.29-.32a1.61,1.61,0,0,0,.25-.29l-.76,1.63a15.54,15.54,0,0,0-.64,1.62c-.18.55-.33,1-.44,1.41a2.17,2.17,0,0,0,0,.44,2,2,0,0,0,.07.54,1.21,1.21,0,0,0,.14.36c0,.07.11.07.11,0,.18-.65.4-1.41.65-2.2a22.78,22.78,0,0,1,1-2.5.41.41,0,0,0,.18.33.64.64,0,0,0,.36.11.53.53,0,0,1,.22,0h.25a4.23,4.23,0,0,0,1-.11,4.75,4.75,0,0,0,1.26-.54,10.13,10.13,0,0,0,1-.83l.22-.22a2.78,2.78,0,0,0-.15.69.85.85,0,0,0,.18.51.77.77,0,0,0,.62.21,1.33,1.33,0,0,0,.79-.29,3.06,3.06,0,0,0,.72-.68c.22-.29.43-.55.62-.84l-.11.29a.66.66,0,0,0-.08.29,1.86,1.86,0,0,0-.1.58c0,.22,0,.4.14.47a.47.47,0,0,0,.36.15,1.61,1.61,0,0,0,1-.55,2.41,2.41,0,0,0,.32-.32,2.14,2.14,0,0,0,.29-.33A1.28,1.28,0,0,0,75.7,6l.11-.11c-.22.55-.51,1.12-.8,1.7a1,1,0,0,0,.18-.07h.22a.64.64,0,0,0,.29,0,.25.25,0,0,0,.18-.14c.11-.18.18-.33.25-.47a2.59,2.59,0,0,1,.29-.47c.18-.25.4-.51.58-.8a6.28,6.28,0,0,1,.65-.76A1.14,1.14,0,0,1,78,4.52L78.48,4c.18-.18.32-.32.5-.47a.51.51,0,0,1,.33-.18c.07,0,.1,0,.1.07a1,1,0,0,1-.18.51,5.74,5.74,0,0,1-.43.69c-.18.25-.32.5-.5.76a3.93,3.93,0,0,0-.44.76,1.73,1.73,0,0,0-.18.68,1.23,1.23,0,0,0,.11.51c.07.14.22.18.43.18a1.55,1.55,0,0,0,1-.54,2,2,0,0,0,.32-.33,2.1,2.1,0,0,0,.29-.32A1.09,1.09,0,0,0,80,6.15v0a1.75,1.75,0,0,0,0,.47,1.13,1.13,0,0,0,.14.58c.08.18.26.25.51.25a1.05,1.05,0,0,0,.76-.36,6.58,6.58,0,0,0,.79-.9c.25-.36.51-.76.76-1.16-.15.4-.33.83-.51,1.27a12.79,12.79,0,0,1-.61,1.23c-.11.07-.32.21-.58.36s-.57.36-.9.58-.65.47-1,.72a3.21,3.21,0,0,0-.76.87,2,2,0,0,0-.29,1,.76.76,0,0,0,.22.58.74.74,0,0,0,.57.18,1.74,1.74,0,0,0,1.09-.36,4.37,4.37,0,0,0,.9-1,6.87,6.87,0,0,0,.76-1.37c.25-.51.46-1,.68-1.55A7.31,7.31,0,0,0,83.42,7a7.21,7.21,0,0,0,.72-.62A3.05,3.05,0,0,0,84.43,6a3.76,3.76,0,0,0,.28-.36s0-.07,0-.14,0-.11-.07-.11ZM66.61,7.56c-.18,0-.25-.08-.25-.26A.92.92,0,0,1,66.43,7a1,1,0,0,1,.18-.33c.07-.11.14-.25.29-.47s.25-.4.4-.61a5.51,5.51,0,0,1,.46-.65,3.2,3.2,0,0,1,.37-.47c.28-.33.54-.58.72-.76a.7.7,0,0,1,.43-.26c.11,0,.14.08.14.26a1.82,1.82,0,0,1-.14.68,3.35,3.35,0,0,1-.29.76,5,5,0,0,1-.68,1.2,5.34,5.34,0,0,1-.87.9A1.42,1.42,0,0,1,66.61,7.56ZM81,8.64a10.79,10.79,0,0,1-.46,1,9.86,9.86,0,0,1-.58.94,3.28,3.28,0,0,1-.65.72,1.15,1.15,0,0,1-.69.29c-.18,0-.28,0-.32-.14a1.07,1.07,0,0,1-.11-.33,1.17,1.17,0,0,1,.25-.69,3.34,3.34,0,0,1,.65-.76,9.52,9.52,0,0,1,.83-.72l.83-.61a4.32,4.32,0,0,1,.61-.4A5.87,5.87,0,0,0,81,8.64Z" transform="translate(0 -0.04)" />
                <path class="cls-3" d="M0,0V7.56H17.92V0ZM5.23,7.19H.65V.43H5.19v1.2H2.13V3.18H4.76V4.34H2.13V6.07h3.1ZM7.54,2.64A1.25,1.25,0,0,0,8,2.93a2.61,2.61,0,0,0,.72.25,4.72,4.72,0,0,1,1.23.54,2.66,2.66,0,0,1,.76.73,1.78,1.78,0,0,1,.25,1,1.88,1.88,0,0,1-.29,1,1.89,1.89,0,0,1-.87.65,3.56,3.56,0,0,1-1.29.21,3,3,0,0,1-1-.14,2.84,2.84,0,0,1-.91-.4,2.85,2.85,0,0,1-.65-.69,3.18,3.18,0,0,1-.18-1H7.21a1.1,1.1,0,0,0,.11.51.83.83,0,0,0,.25.32,1.12,1.12,0,0,0,.4.18,1.93,1.93,0,0,0,.54.08A1.43,1.43,0,0,0,9.09,6a.77.77,0,0,0,.32-.26.59.59,0,0,0,.11-.36A.71.71,0,0,0,9.41,5a1.07,1.07,0,0,0-.36-.33,3.93,3.93,0,0,0-.83-.33l-.86-.32a7.2,7.2,0,0,1-.72-.43A3,3,0,0,1,6.13,3,1.5,1.5,0,0,1,6,2.24a1.59,1.59,0,0,1,.33-1A1.88,1.88,0,0,1,7.14.58,3.5,3.5,0,0,1,8.44.33a3,3,0,0,1,1.3.25,2.35,2.35,0,0,1,.86.72,1.92,1.92,0,0,1,.33,1.09H9.48a1.19,1.19,0,0,0-.1-.51A.73.73,0,0,0,9,1.55a1.51,1.51,0,0,0-.62-.1,1.27,1.27,0,0,0-.57.1.75.75,0,0,0-.36.29.66.66,0,0,0-.11.37A.76.76,0,0,0,7.54,2.64Zm9.73,3.72a1.65,1.65,0,0,1-.5.4,2.33,2.33,0,0,1-.87.36,4.22,4.22,0,0,1-1.26.15,3.25,3.25,0,0,1-1.55-.4,2.41,2.41,0,0,1-1-1.12A3.81,3.81,0,0,1,11.68,4V3.62a3.72,3.72,0,0,1,.37-1.78,2.74,2.74,0,0,1,1-1.12A3,3,0,0,1,14.57.33a3.62,3.62,0,0,1,1.48.28,1.87,1.87,0,0,1,.86.8,3,3,0,0,1,.36,1.19h-1.4A2.65,2.65,0,0,0,15.69,2a1.07,1.07,0,0,0-.4-.36,1.78,1.78,0,0,0-.65-.14,1.14,1.14,0,0,0-.76.25,1.35,1.35,0,0,0-.46.72,3.53,3.53,0,0,0-.18,1.16v.4a3.36,3.36,0,0,0,.18,1.16,1.43,1.43,0,0,0,.54.72,1.54,1.54,0,0,0,.86.25,2.81,2.81,0,0,0,.54,0L15.69,6a1,1,0,0,0,.18-.15V4.7H14.64V3.62h2.71Z" transform="translate(0 -0.04)" />
            </g>
        </g>
    </g>
</svg>