<svg xmlns="http://www.w3.org/2000/svg" viewBox="0 0 392 392.01"><defs><style>.cls-1{fill:#555}</style></defs><g id="Layer_2" data-name="Layer 2"><g id="Layer_1-2" data-name="Layer 1"><path class="cls-1" d="M386 392a6 6 0 0 1-2.55-.57l-91.21-42.8-95.89 42.85a6 6 0 0 1-5-.06l-89.58-42.76-93.27 42.8A6 6 0 0 1 0 386V99.43A6 6 0 0 1 3.42 94l95.79-45.52a6 6 0 0 1 5.21 0l39.52 19.28a6 6 0 1 1-5.26 10.78l-36.92-18L12 103.22v273.43l87.28-40.06a6 6 0 0 1 5.09 0L194 379.4l95.87-42.84a6 6 0 0 1 5 0l85.15 40V103.19L330 78.87a6 6 0 1 1 5.25-10.79l53.42 26a6 6 0 0 1 3.38 5.4V386a6 6 0 0 1-6 6Z"/><path class="cls-1" d="M237.44 271.56a6.07 6.07 0 0 1-4.57-2.09c-.35-.41-3.34-4.15.45-8.43a6 6 0 0 1 4.49-2 6 6 0 0 1 4.5 2.05c3.74 4.28.75 8 .4 8.4a6 6 0 0 1-4.89 2.07Zm.36-12a6 6 0 0 0-4.11 2 5.93 5.93 0 0 0-.35 7.44l4.47-4 4.49 4a5.92 5.92 0 0 0-.37-7.4 6 6 0 0 0-4.13-2.02Z"/><path class="cls-1" d="M237.81 271a6 6 0 0 1-4.05-1.58c-3.11-2.85-76.38-70.4-91.23-118.32-5.15-16.64-8.07-27-8.07-45.85C134.45 47.22 180.82 0 237.81 0s103.36 47.22 103.36 105.27c0 19-2.94 29.39-8.15 46.1-14.87 47.75-88 115.23-91.15 118.08a6 6 0 0 1-4.06 1.55Zm0-259c-50.37 0-91.36 41.84-91.36 93.27 0 17.19 2.58 26.32 7.53 42.3 12 38.7 68.17 94.26 83.82 109.21 15.64-14.94 71.75-70.45 83.75-109 5-16 7.61-25.22 7.61-42.53.01-51.41-40.98-93.25-91.35-93.25Zm.38 138.78a44.94 44.94 0 1 1 44.95-44.95 45 45 0 0 1-44.95 44.95Zm0-77.88a32.94 32.94 0 1 0 32.95 32.94 33 33 0 0 0-32.95-32.95Z"/></g></g></svg>