<svg xmlns="http://www.w3.org/2000/svg" viewBox="0 0 47.29 39.78"><defs><style>.cls-1{fill:#444;}</style></defs><title>snsIcon4</title><g id="Layer_2" data-name="Layer 2"><g id="Layer_1-2" data-name="Layer 1"><path class="cls-1" d="M26.45,15.68a1.86,1.86,0,1,0,1.86,1.86A1.85,1.85,0,0,0,26.45,15.68Z"/><path class="cls-1" d="M37.6,15.68a1.86,1.86,0,1,0,1.86,1.86A1.86,1.86,0,0,0,37.6,15.68Z"/><path class="cls-1" d="M39.82,0H7.47A7.48,7.48,0,0,0,0,7.5V25.28a7.48,7.48,0,0,0,7.47,7.49H18.61L22.42,39a1.24,1.24,0,0,0,.12.18,1.27,1.27,0,0,0,2.21,0,.8.8,0,0,0,.13-.19l3.8-6.19H39.82a7.48,7.48,0,0,0,7.47-7.49V7.5A7.49,7.49,0,0,0,39.82,0ZM10.5,21.94a2.78,2.78,0,0,1-2.43-1.25v.94H5.15V9.58H8v4.59A3.85,3.85,0,0,1,10.5,13c3.93,0,4.08,4.41,4.08,4.41A4.27,4.27,0,0,1,10.5,21.94Zm9.12-8.1v7.8H16.83V14.5c0-2.47-1.32-2.4-1.32-2.4V9.3C19.74,9.3,19.62,13.84,19.62,13.84Zm11.72,3.69c0,4.4-4.89,4.41-4.89,4.41-4.94,0-4.78-4.41-4.78-4.41,0-4.47,4.78-4.47,4.78-4.47C31.5,13.07,31.34,17.53,31.34,17.53Zm10.8,4a4.2,4.2,0,0,1-4.23,4.52H36.78V23.49h.7c2,0,1.84-2.12,1.84-2.12V20.7a3.33,3.33,0,0,1-2.54,1.1c-4,0-4-4.3-4-4.3,0-4.61,4.09-4.43,4.09-4.43a3.16,3.16,0,0,1,2.43,1.1v-.82h2.81v8.18Z"/><path class="cls-1" d="M9.86,15.68a1.86,1.86,0,1,0,1.86,1.86A1.85,1.85,0,0,0,9.86,15.68Z"/></g></g></svg>